<svg width="165" height="38" viewBox="0 0 165 38" fill="none" xmlns="http://www.w3.org/2000/svg">
<path d="M27.2734 8.43644C27.2734 8.43644 29.002 10.8247 30.479 12.2257C31.9561 13.6268 32.6476 14.6776 32.8675 15.3145C33.0875 15.9513 32.7418 17.9995 32.1761 19.0452C31.6104 20.0909 31.2647 20.7915 31.1705 21.3965L31.0762 22.0015L30.2591 22.5747C30.2591 22.5747 30.1792 20.3437 30.4313 19.6961C30.6833 19.0484 31.4187 16.8907 31.3219 16.2634C31.2251 15.6361 30.6444 14.498 29.4633 13.3797C28.2823 12.2614 27.1012 11.0845 26.9661 10.4177C26.8309 9.75091 27.2741 8.43644 27.2741 8.43644H27.2734Z" fill="#F7D700"/>
<path d="M26.5399 10.7508C26.5399 10.7508 27.6254 12.4206 28.4758 13.2224C29.2873 13.9873 30.0636 15.0075 30.354 15.4196C30.6443 15.8316 30.9542 16.5379 30.8185 16.9105C30.7078 17.2142 30.7411 17.2244 30.7411 17.2244C30.7411 17.2244 28.8825 16.0673 28.3596 15.6157C27.8366 15.1642 27.0622 14.4777 26.7524 13.909C26.4425 13.3402 26.1326 12.8104 26.1716 12.0844C26.2105 11.3583 26.5393 10.7501 26.5393 10.7501L26.5399 10.7508Z" fill="#F7D700"/>
<path d="M25.8818 13.7523C25.8818 13.7523 26.3853 14.733 26.8498 15.0667C27.3143 15.4005 29.5023 17.0085 29.6569 17.1066C29.8115 17.2047 30.5475 17.7734 30.5475 17.7734L30.3345 18.5975C30.3345 18.5975 27.9145 17.7148 26.9396 16.9888C26.1263 16.3825 25.6297 15.2623 25.7071 14.6936C25.7844 14.1248 25.8812 13.7516 25.8812 13.7516L25.8818 13.7523Z" fill="#F7D700"/>
<path d="M30.1408 19.0452C30.1408 19.0452 28.1465 17.9702 27.5852 17.774C27.0239 17.5779 26.1332 17.0678 25.8428 16.7933L25.5524 16.5188C25.5524 16.5188 25.0684 18.0294 26.5399 18.7943C28.0113 19.5591 29.831 19.7553 29.831 19.7553L30.1408 19.0452Z" fill="#F7D700"/>
<path d="M29.7348 20.1794L29.4476 20.8883C29.4476 20.8883 26.8466 20.7972 26.093 20.2342C25.3758 19.698 25.4764 18.7077 25.4764 18.7077C25.4764 18.7077 28.6581 19.8527 29.1968 20.0164" fill="#F7D700"/>
<path d="M29.3941 21.3423C29.3941 21.3423 29.5557 22.0333 29.3759 22.1601C29.1968 22.2874 27.4827 22.069 26.9403 21.8875C26.3978 21.706 26.2727 21.6327 26.0754 21.3423C25.878 21.0519 25.8422 20.6698 25.8422 20.6698C25.8422 20.6698 28.8561 21.3933 29.1251 21.3678L29.3941 21.3423Z" fill="#F7D700"/>
<path d="M29.3401 22.4148L29.4607 22.9599C29.4607 22.9599 27.4827 23.5051 26.9403 22.8873L26.3978 22.2696C26.3978 22.2696 28.6405 22.4333 28.9095 22.4148C29.1785 22.3963 29.3401 22.4148 29.3401 22.4148Z" fill="#F7D700"/>
<path d="M22.4191 0C22.4191 0 21.4606 3.22568 22.9446 5.10504C24.4286 6.98441 26.3136 8.86313 26.3136 8.86313C26.3136 8.86313 26.3444 10.1636 26.0044 10.7501C25.6643 11.3367 25.5405 11.9634 25.5405 11.9634C25.5405 11.9634 21.4914 7.76647 21.0891 6.8271C20.6875 5.88774 19.8527 3.8205 20.502 2.66142C21.1513 1.50234 22.4191 0 22.4191 0Z" fill="#F7D700"/>
<path d="M19.2971 5.26171C19.2971 5.26171 20.2864 7.48561 21.9244 9.08285C23.5624 10.6801 25.6995 12.7473 25.6995 12.7473L25.0772 14.407C25.0772 14.407 19.6057 10.5546 19.0494 8.67526C18.4932 6.7959 19.2965 5.26171 19.2965 5.26171H19.2971Z" fill="#F7D700"/>
<path d="M18.6478 9.67767C18.6478 9.67767 20.4405 11.9016 21.5228 12.6219C22.6046 13.3421 24.3978 14.626 24.6756 14.877C24.9535 15.1279 25.2319 15.5973 25.1703 15.9418C25.1087 16.2863 24.7064 17.069 24.7064 17.069C24.7064 17.069 21.4298 15.503 20.9043 15.0018C20.3789 14.5006 18.864 12.9033 18.6478 12.2767C18.4316 11.65 18.6478 9.67703 18.6478 9.67703V9.67767Z" fill="#F7D700"/>
<path d="M19.9149 15.0336C19.9149 15.0336 24.5518 17.7899 24.7372 17.8524C24.9226 17.9148 24.9226 19.4496 24.9226 19.4496C24.9226 19.4496 21.7698 18.416 21.3675 18.009C20.9652 17.6021 20.3166 17.1009 19.9149 16.3494C19.5133 15.5979 19.7295 14.8458 19.7295 14.8458L19.9149 15.0336Z" fill="#F7D700"/>
<path d="M25.2564 21.2443C25.2564 21.2443 25.5028 20.61 25.2564 20.303C25.01 19.996 24.7253 19.8228 23.531 19.5534C22.3361 19.2847 21.8654 19.1305 21.8654 19.1305C21.8654 19.1305 21.6215 19.6878 21.8654 19.9374C22.1092 20.1871 22.9477 20.8596 23.5618 21.0901C24.1759 21.3207 25.257 21.2436 25.257 21.2436L25.2564 21.2443Z" fill="#F7D700"/>
<path d="M23.0571 21.7442C23.0571 21.7442 25.1659 21.7633 25.4764 21.8786C25.7875 21.9938 26.0151 22.7256 26.0151 22.7256C26.0151 22.7256 24.3714 22.8122 23.8975 22.6568C23.4235 22.5014 23.0571 21.7442 23.0571 21.7442Z" fill="#F7D700"/>
<path d="M12.2919 34.1336C12.2919 34.1336 13.3485 33.9871 13.7388 33.8553C14.1298 33.7235 16.3002 32.9172 17.1248 32.6968C17.9495 32.4771 18.5718 32.2861 18.5718 32.2861C18.5718 32.2861 18.0073 33.4006 17.0959 33.7668C16.1845 34.133 14.2455 34.5584 13.9412 34.573C13.637 34.5877 12.8413 34.9106 12.6822 35.101C12.5232 35.2914 12.1178 35.7315 12.0166 35.9951C11.9154 36.2588 11.7419 36.7135 11.8287 36.816C11.9154 36.9186 12.3064 37.1383 12.422 37.344C12.5377 37.5497 12.5088 37.9305 12.2919 37.9891C12.0751 38.0477 11.0329 37.8573 10.8739 37.7108C10.7149 37.5643 10.6426 36.7727 10.7149 36.3766C10.7872 35.9805 10.7438 36.0391 10.7872 35.9805C10.8305 35.9219 12.2919 34.133 12.2919 34.133V34.1336Z" fill="#F7D700"/>
<path d="M47.9986 29.6087C47.9835 29.5775 47.5769 29.4285 47.5769 29.3871C47.5769 29.3457 47.8107 29.1865 47.8817 29.1655C47.9527 29.1451 48.0137 28.898 47.9628 28.7483C47.9119 28.5993 47.6831 28.635 47.5612 28.6662C47.4392 28.6974 47.1752 28.7592 47.1903 28.7025C47.2054 28.6458 47.5511 28.3783 47.5153 28.3013C47.4794 28.2242 47.1696 27.9102 46.9973 27.9306C46.8245 27.951 45.6918 28.2497 45.453 28.3783C45.2141 28.507 44.7672 28.7853 44.4976 28.8623C44.2286 28.9394 43.578 29.0063 42.9482 28.8674C42.9482 28.8674 41.4636 28.6127 41.1292 28.5566L40.7948 28.5C40.7948 28.5 40.4233 29.2056 40.2467 29.4126C40.0701 29.6196 39.9217 29.789 39.8193 29.789C39.7168 29.789 39.7545 29.0738 39.7451 28.7541C39.7357 28.4344 39.671 28.3121 39.2806 27.9166C38.8903 27.5211 38.8161 27.3613 38.8256 27.2581C38.835 27.1543 39.0575 27.0791 39.0575 26.7785C39.0575 26.4779 39.1134 26.2608 38.7231 25.6589C38.3334 25.0571 37.3579 24.2572 37.3026 24.2286C37.2466 24.2005 38.5748 24.3604 38.835 24.7081C39.0952 25.0558 39.2901 25.6112 39.2901 25.6112C39.2901 25.6112 39.708 25.2539 39.94 25.1692C40.1719 25.0845 40.3391 24.9902 40.5434 25.1036C40.7477 25.2163 40.9149 25.5647 40.8683 25.7997C40.8218 26.0347 40.7942 26.2888 40.7942 26.2888C40.7942 26.2888 41.5931 26.5709 42.0758 26.1761L42.5585 25.7812L42.5309 25.1794C42.5309 25.1794 42.6999 25.1705 42.8018 24.945C42.9036 24.7196 42.8753 24.3483 42.8753 24.3483C42.8753 24.3483 42.4932 24.5776 42.3172 24.596C42.1412 24.6145 41.9828 24.6151 41.9828 24.6151C41.9828 24.6151 42.1097 24.0057 42.3159 23.7815C42.517 23.5624 42.842 23.2484 43.106 23.2045L43.4127 23.1587C43.4127 23.1587 43.3184 24.0031 43.2066 24.3305C43.094 24.6572 42.9262 25.1832 42.9262 25.1832C42.9262 25.1832 43.5856 24.9272 43.9784 24.4018C44.3713 23.8764 45.3248 22.3556 45.3392 22.2136C45.3531 22.0715 45.101 21.6448 44.6522 21.4035C44.6522 21.4035 44.3581 21.3041 44.1337 21.0341C43.9093 20.7641 44.0073 20.5081 43.4743 20.238C42.9413 19.968 42.3385 19.712 41.9457 19.6266C41.5528 19.5413 41.2021 19.442 40.9356 19.2999C40.6691 19.1579 39.7998 18.5612 39.7998 18.5612C39.7998 18.5612 39.6037 19.1579 39.5195 19.1579C39.4352 19.1579 38.6778 19.0707 38.6778 19.0707C38.6778 19.0707 39.0147 19.57 39.1549 19.854C39.2951 20.138 39.5056 20.4081 39.0009 20.2094C38.4962 20.0107 37.6401 19.1719 37.6401 19.1719H36.5741V19.5133C36.5741 19.5133 34.7645 19.812 34.3723 19.954L33.9794 20.096C33.9794 20.096 35.1718 20.494 35.0593 20.6647C34.9468 20.8354 33.9794 21.2761 33.9794 21.2761C33.9794 21.2761 34.288 22.7116 34.3999 22.8396C34.5124 22.9676 35.0593 23.863 34.9191 23.891C34.7789 23.9197 34.0913 23.6923 33.3622 22.7683L32.6331 21.8448C32.6331 21.8448 31.2722 22.4244 30.9919 22.753C30.7116 23.0816 30.0447 24.133 29.7191 25.3412C29.3929 26.5493 29.2527 27.2313 29.0566 27.1747C28.8605 27.118 28.8184 26.6486 28.8184 25.5685C28.8184 24.4884 28.9447 23.7777 28.9026 23.7777C28.8605 23.7777 27.6122 24.0337 27.3878 24.1611C27.1634 24.2884 26.7988 24.6018 26.6587 25.1698C26.5185 25.7386 26.3639 26.9747 26.1961 26.9034C26.0276 26.832 25.795 26.0646 25.8271 25.2972L25.8592 24.5298C25.8592 24.5298 23.9377 25.0412 23.7975 25.1125C23.6573 25.1839 23.2262 25.8086 23.042 26.6187C22.8578 27.4288 22.5354 28.9209 22.465 28.9776C22.3946 29.0343 22.2268 29.1336 22.2268 27.9828V25.6379L17.0789 26.4053C17.0789 26.4053 17.1349 27.6561 17.0789 27.6415C17.023 27.6275 16.5038 26.7747 16.4058 26.476L16.3077 26.1774C16.3077 26.1774 14.456 25.7933 14.1059 25.5946L13.7551 25.3959C13.7551 25.3959 13.3761 25.922 13.236 25.7793C13.0958 25.6373 13.236 25.2252 13.236 25.2252C13.236 25.2252 12.6187 24.8272 11.6369 24.7419L10.6551 24.6565C10.6551 24.6565 10.3182 25.2106 10.1642 25.2533C10.0102 25.2959 9.96813 24.6279 9.96813 24.6279C9.96813 24.6279 7.83608 25.1253 7.62552 25.2393C7.62552 25.2393 7.43192 25.3303 7.40552 25.3526C7.37912 25.3749 7.44952 25.7265 7.36153 25.7354C7.27353 25.7443 7.08056 25.5309 7.02776 25.5443C6.97497 25.5577 6.01768 26.0296 5.45513 26.4569C4.8932 26.8843 3.29857 28.179 3.29857 28.179L2.79887 28.514C2.79887 28.514 2.84161 28.7821 2.76179 28.8127C2.68196 28.8432 2.50974 28.7471 2.48208 28.7133C2.48208 28.7133 1.62977 29.0063 1.46068 29.0661C1.29098 29.126 0.052101 29.4457 0.0244447 29.554C-0.00321151 29.6616 -0.0622953 29.9418 0.225581 30.0494C0.225581 30.0494 0.610883 30.3004 1.86673 29.859C3.12257 29.4177 3.71467 29.1795 4.10751 28.7674C4.49973 28.3554 5.66318 27.1549 6.96868 26.6563C8.27418 26.1576 9.17364 25.8825 10.1441 25.8825C11.1146 25.8825 12.0279 26.2009 12.4987 26.4321C12.9695 26.6633 13.3761 26.8078 13.3761 26.8078C13.3761 26.8078 13.2907 26.9671 13.1976 27.0467C13.1046 27.1263 12.6552 27.3867 12.4767 27.7262C12.2982 28.0663 12.1341 28.449 12.163 28.5719C12.1913 28.6948 12.6414 29.3674 12.7979 29.5482C12.9544 29.7291 13.1549 29.917 13.0688 29.9673C12.9833 30.0176 12.1486 29.931 11.806 29.7864L11.4635 29.6418C11.4635 29.6418 10.8714 30.2927 10.6784 30.5385C10.4854 30.7844 10.129 31.2034 9.55831 31.4136C8.98759 31.6231 7.85305 31.9918 7.85305 31.9918C7.85305 31.9918 7.59597 32.8592 7.51741 32.9319C7.43884 33.0045 7.16793 33.0115 7.09628 32.5561C7.02462 32.1008 6.98942 31.6671 6.98942 31.6671C6.98942 31.6671 5.79077 33.135 5.46267 33.677C5.13457 34.2189 4.09243 36.3734 4.05723 36.4823C4.0214 36.5906 3.97175 37.1039 4.30677 37.3064C4.64178 37.5089 5.54815 37.8993 5.72666 37.9063C5.90517 37.9133 6.27602 37.5089 6.28293 37.2848C6.28984 37.0606 5.919 35.2315 6.31876 34.8195C6.71852 34.4074 6.91085 34.2482 8.00265 34.2119C9.09444 34.1756 9.96498 34.154 10.2145 34.0241C10.4641 33.8941 10.4289 32.8892 10.4641 32.6574C10.4993 32.4255 10.6067 32.3103 10.7563 32.4981C10.9059 32.686 11.5338 33.8139 11.5338 33.8139L15.9035 32.6854C15.9035 32.6854 15.703 31.797 15.703 31.4301V31.0633C15.703 31.0633 16.1116 31.4206 16.2694 31.6091C16.4271 31.7976 16.9658 32.2867 16.9658 32.2867C16.9658 32.2867 18.4982 31.6849 19.3153 31.6658C20.1324 31.6467 20.6152 31.6187 20.6152 31.6187C20.6152 31.6187 20.7918 29.8966 20.9307 30.1507C21.0702 30.4048 21.3116 31.59 21.3116 31.59C21.3116 31.59 23.866 31.6938 25.0119 31.9212C26.1577 32.1485 26.5173 32.1714 26.5173 32.1714C26.5173 32.1714 26.2086 31.1448 26.2332 30.5697C26.257 29.994 26.2093 29.3209 26.4022 29.2839C26.5958 29.247 26.5349 29.4553 26.8252 30.1042C27.115 30.7532 27.6593 31.6715 27.9007 31.8798C28.1427 32.088 28.5896 32.4306 28.5896 32.4306C28.5896 32.4306 29.6361 32.4427 30.3759 32.2867C31.1151 32.1307 31.2176 32.0893 31.2176 32.0893C31.2176 32.0893 30.9303 31.611 30.9404 31.1633L30.9504 30.7162C30.9504 30.7162 31.4024 31.4028 31.6073 31.5588C31.8128 31.7148 31.9976 31.8708 32.1824 31.8295C32.3672 31.7881 33.4967 31.2779 33.4967 31.2779C33.4967 31.2779 33.2503 30.0297 33.2912 29.624C33.332 29.2183 33.5583 28.407 33.6092 28.4694C33.6607 28.5318 33.8041 29.1559 33.9272 29.645C34.0504 30.1341 34.2453 30.9455 35.0876 31.2576L35.9292 31.5696C35.9292 31.5696 37.1919 29.6661 37.2843 29.6552C37.3767 29.645 37.4484 29.5928 37.3767 30.1443C37.3051 30.6958 36.9971 31.9543 36.9971 31.9543C36.9971 31.9543 38.7545 32.0097 39.8671 31.8428C40.9796 31.676 42.7729 31.2792 42.7729 31.2792C42.7729 31.2792 42.8489 30.1055 42.9884 30.1055C43.128 30.1055 43.6164 30.9538 43.6164 30.9538C43.6164 30.9538 44.3838 30.5647 45.3958 30.6474C46.4078 30.7302 46.7334 30.8952 46.8848 30.8481C47.0363 30.8009 47.2921 30.6474 47.2921 30.5889C47.2921 30.5889 47.0432 30.145 47.2921 30.145C47.541 30.145 47.6781 30.2373 47.8101 30.1036C47.9421 29.9698 48.0131 29.6406 47.998 29.6094L47.9986 29.6087ZM42.6717 24.6903C42.7175 24.7431 42.5805 24.9807 42.4862 24.968C42.3919 24.9546 42.3008 24.9151 42.3008 24.9151C42.3008 24.9151 42.6264 24.6374 42.6723 24.6903H42.6717ZM43.9828 24.0299C43.7484 24.3075 43.4221 24.5585 43.4221 24.5585L43.5271 24.3999C43.6321 24.2413 43.8389 23.2504 43.8389 23.2504C43.8389 23.2504 43.8917 23.7522 43.957 23.7522C44.0224 23.7522 44.2569 23.2102 44.3342 23.316C44.4115 23.4217 44.2179 23.7522 43.9834 24.0292L43.9828 24.0299ZM44.4687 22.6301C44.4775 22.6785 43.6409 22.3084 43.4925 22.3084C43.3442 22.3084 42.6723 21.983 42.6723 21.983C42.6723 21.983 43.6145 21.9964 43.8634 22.1155C44.1123 22.2346 44.4605 22.581 44.4693 22.6301H44.4687ZM44.221 21.8773C44.4002 22.0626 44.4687 22.2906 44.4687 22.2906C44.4687 22.2906 44.1029 22.032 43.876 21.941C43.6491 21.8505 43.3436 21.7308 43.3436 21.7308C43.3436 21.7308 44.0419 21.6913 44.221 21.8767V21.8773ZM43.5372 21.2946L43.6076 21.315C43.6076 21.315 43.2474 21.5576 43.0161 21.4455C42.7848 21.3334 42.4693 20.8863 42.429 20.7997C42.429 20.7997 43.4674 21.2742 43.5378 21.2946H43.5372ZM40.9727 21.4551C41.0732 21.1959 41.2555 20.9093 41.2555 20.9093C41.2555 20.9093 41.1644 21.6117 41.2555 21.7786C41.3467 21.9448 41.627 22.3199 41.627 22.3199C41.627 22.3199 41.5088 23.023 41.4812 23.0141C41.4535 23.0045 41.3504 22.3721 41.1455 22.1766C40.8998 21.9416 40.9356 22.1301 40.9174 22.0098C40.8991 21.8894 40.8715 21.7136 40.9721 21.4551H40.9727ZM40.0223 21.8837C40.2084 21.2793 40.637 20.7131 40.637 20.7131C40.637 20.7131 40.429 22.3931 40.578 22.6008C40.7269 22.8084 40.8979 23.0733 40.935 23.3567L40.9721 23.6401C40.9721 23.6401 40.351 23.1829 40.0531 23.088C39.7552 22.9937 39.835 22.488 40.0217 21.8837H40.0223Z" fill="#F7D700"/>
<g clip-path="url(#clip0_7069_38555)">
<mask id="path-2-outside-1_7069_38555" maskUnits="userSpaceOnUse" x="57" y="7" width="179" height="14" fill="black">
<rect fill="white" x="57" y="7" width="179" height="14"/>
<path d="M58 19.8021L59.9886 8.19789H66.6596L66.3269 10.1372H61.6207L61.1374 12.9235H65.7485L65.4158 14.8628H60.8047L59.9569 19.8021H58Z"/>
<path d="M66.7296 19.8021L68.7182 8.19789H70.6831L69.0193 17.8628H73.868L73.5353 19.8021H66.7296Z"/>
<path d="M78.6203 19.8021H76.6555L77.4398 15.2823L74.8095 8.19789H76.8932L78.0737 11.4749C78.3536 12.2559 78.5411 12.8232 78.6362 13.1768C78.8052 12.8232 78.9954 12.4565 79.2066 12.0765L80.1019 10.5488L81.4488 8.19789H83.7226L79.3572 15.504L78.6203 19.8021Z"/>
<path d="M83.135 19.8021L85.1236 8.19789H87.0805L85.0919 19.8021H83.135Z"/>
<path d="M95.0495 19.8021H93.2194L90.6444 12.0053L89.3134 19.8021H87.4832L89.4719 8.19789H91.302L93.877 15.9631L95.208 8.19789H97.0382L95.0495 19.8021Z"/>
<path d="M102.86 13.6042H107.115L106.259 18.5831C105.731 19.0053 105.1 19.3483 104.365 19.6121C103.631 19.8707 102.902 20 102.179 20C100.922 20 99.9735 19.6253 99.3344 18.876C98.5685 17.9789 98.1856 16.7361 98.1856 15.1478C98.1856 13.7652 98.4471 12.496 98.97 11.3404C99.4981 10.1794 100.145 9.33245 100.911 8.79947C101.682 8.26649 102.543 8 103.494 8C104.54 8 105.406 8.30079 106.093 8.90237C106.779 9.50396 107.236 10.4222 107.463 11.657L105.641 11.9103C105.319 10.591 104.603 9.9314 103.494 9.9314C102.892 9.9314 102.337 10.1161 101.83 10.4855C101.323 10.8496 100.903 11.4433 100.57 12.2665C100.243 13.0897 100.079 14.0501 100.079 15.1478C100.079 16.1346 100.264 16.8575 100.634 17.3166C101.003 17.7757 101.537 18.0053 102.234 18.0053C102.625 18.0053 103.005 17.9472 103.375 17.8311C103.877 17.6781 104.305 17.4908 104.659 17.2691L104.96 15.5435H102.527L102.86 13.6042Z"/>
<path d="M116.794 19.8021H114.837L116.5 10.1372H113.704L114.036 8.19789H121.539L121.207 10.1372H118.457L116.794 19.8021Z"/>
<path d="M121.213 19.8021L123.202 8.19789H125.159L123.17 19.8021H121.213Z"/>
<path d="M130.822 13.6042H135.077L134.221 18.5831C133.693 19.0053 133.062 19.3483 132.327 19.6121C131.593 19.8707 130.864 20 130.141 20C128.884 20 127.936 19.6253 127.296 18.876C126.531 17.9789 126.148 16.7361 126.148 15.1478C126.148 13.7652 126.409 12.496 126.932 11.3404C127.46 10.1794 128.107 9.33245 128.873 8.79947C129.644 8.26649 130.505 8 131.456 8C132.502 8 133.368 8.30079 134.055 8.90237C134.741 9.50396 135.198 10.4222 135.425 11.657L133.603 11.9103C133.281 10.591 132.565 9.9314 131.456 9.9314C130.854 9.9314 130.299 10.1161 129.792 10.4855C129.285 10.8496 128.865 11.4433 128.532 12.2665C128.205 13.0897 128.041 14.0501 128.041 15.1478C128.041 16.1346 128.226 16.8575 128.596 17.3166C128.966 17.7757 129.499 18.0053 130.196 18.0053C130.587 18.0053 130.967 17.9472 131.337 17.8311C131.839 17.6781 132.267 17.4908 132.621 17.2691L132.922 15.5435H130.489L130.822 13.6042Z"/>
<path d="M136.39 19.8021L138.379 8.19789H145.438L145.106 10.1372H140.011L139.56 12.7731H144.488L144.155 14.7124H139.227L138.68 17.8628H144.155L143.83 19.8021H136.39Z"/>
<path d="M147.774 19.8021H145.817L147.806 8.19789H152.045C152.826 8.19789 153.41 8.30079 153.796 8.5066C154.181 8.7124 154.493 9.04485 154.73 9.50396C154.973 9.96306 155.095 10.5435 155.095 11.2454C155.095 12.2744 154.841 13.1003 154.334 13.723C153.833 14.3404 153.109 14.723 152.163 14.8707C152.428 15.1609 152.686 15.5726 152.94 16.1055C153.362 17.0026 153.827 18.2348 154.334 19.8021H152.227C152.142 19.4749 151.857 18.5858 151.371 17.1346C151.118 16.3905 150.885 15.8654 150.674 15.5594C150.521 15.343 150.365 15.1953 150.207 15.1161C150.048 15.0369 149.781 14.9974 149.406 14.9974H148.598L147.774 19.8021ZM148.899 13.2559H149.937C150.92 13.2559 151.582 13.1953 151.926 13.0739C152.274 12.9472 152.562 12.7177 152.789 12.3852C153.022 12.0528 153.138 11.686 153.138 11.285C153.138 10.847 152.993 10.5277 152.702 10.3272C152.533 10.2005 152.163 10.1372 151.593 10.1372H149.438L148.899 13.2559Z"/>
<path d="M156.187 16.0422L158.049 15.9235C158.075 16.5462 158.146 16.9789 158.263 17.2216C158.379 17.4644 158.572 17.657 158.841 17.7995C159.11 17.9367 159.477 18.0053 159.942 18.0053C160.544 18.0053 160.996 17.8734 161.297 17.6095C161.603 17.3456 161.757 17 161.757 16.5726C161.757 16.2718 161.669 16.0132 161.495 15.7968C161.321 15.5858 160.869 15.2876 160.14 14.9024C159.216 14.4116 158.601 14.0317 158.294 13.7625C157.993 13.4881 157.758 13.153 157.589 12.7573C157.425 12.3615 157.344 11.9103 157.344 11.4037C157.344 10.3694 157.647 9.54354 158.255 8.92612C158.862 8.30871 159.691 8 160.742 8C161.804 8 162.652 8.30607 163.286 8.91821C163.925 9.53034 164.276 10.3931 164.339 11.5066L162.462 11.6095C162.367 10.4644 161.791 9.89182 160.735 9.89182C160.212 9.89182 159.826 10.0026 159.578 10.2243C159.335 10.4406 159.213 10.7388 159.213 11.1187C159.213 11.467 159.33 11.7493 159.562 11.9657C159.789 12.1873 160.249 12.4828 160.941 12.8522C161.854 13.3325 162.462 13.7071 162.763 13.9763C163.064 14.2401 163.294 14.5673 163.452 14.9578C163.616 15.343 163.698 15.781 163.698 16.2718C163.698 17.3694 163.352 18.2665 162.66 18.9631C161.968 19.6544 161.054 20 159.919 20C159.063 20 158.331 19.8179 157.724 19.4538C157.122 19.0897 156.71 18.6042 156.488 17.9974C156.271 17.3905 156.171 16.7388 156.187 16.0422Z"/>
<path d="M169.502 19.8021L171.491 8.19789H178.55L178.217 10.1372H173.123L172.672 12.7731H177.599L177.267 14.7124H172.339L171.792 17.8628H177.267L176.942 19.8021H169.502Z"/>
<path d="M180.482 19.8021H177.947L182.154 13.9288L179.785 8.19789H181.837L182.756 10.3747C183.089 11.1557 183.329 11.7625 183.477 12.1953C184.005 11.409 184.451 10.7652 184.816 10.2639L186.313 8.19789H188.769L184.42 14.3087L186.765 19.8021H184.554L183.841 18.0528C183.461 17.1187 183.213 16.4565 183.097 16.066C182.933 16.372 182.497 17.0158 181.789 17.9974L180.482 19.8021Z"/>
<path d="M190.234 19.8021H188.277L190.265 8.19789H194.14C194.858 8.19789 195.41 8.30079 195.795 8.5066C196.181 8.7124 196.49 9.03694 196.722 9.48021C196.96 9.91821 197.079 10.4565 197.079 11.095C197.079 11.8654 196.936 12.5752 196.651 13.2243C196.371 13.8681 196.02 14.3456 195.597 14.657C195.18 14.9683 194.684 15.1794 194.108 15.2902C193.796 15.3483 193.178 15.3773 192.254 15.3773H190.994L190.234 19.8021ZM191.327 13.4538H191.929C192.896 13.4538 193.553 13.3879 193.902 13.2559C194.256 13.124 194.546 12.8839 194.773 12.5356C195.001 12.1821 195.114 11.7731 195.114 11.3087C195.114 10.8074 194.95 10.4617 194.623 10.2718C194.433 10.1609 193.994 10.1055 193.308 10.1055H191.897L191.327 13.4538Z"/>
<path d="M199.66 19.8021H197.704L199.692 8.19789H203.931C204.713 8.19789 205.296 8.30079 205.682 8.5066C206.067 8.7124 206.379 9.04485 206.617 9.50396C206.86 9.96306 206.981 10.5435 206.981 11.2454C206.981 12.2744 206.728 13.1003 206.221 13.723C205.719 14.3404 204.995 14.723 204.05 14.8707C204.314 15.1609 204.573 15.5726 204.826 16.1055C205.249 17.0026 205.713 18.2348 206.221 19.8021H204.113C204.029 19.4749 203.743 18.5858 203.257 17.1346C203.004 16.3905 202.771 15.8654 202.56 15.5594C202.407 15.343 202.251 15.1953 202.093 15.1161C201.934 15.0369 201.668 14.9974 201.293 14.9974H200.484L199.66 19.8021ZM200.785 13.2559H201.823C202.806 13.2559 203.469 13.1953 203.812 13.0739C204.161 12.9472 204.448 12.7177 204.676 12.3852C204.908 12.0528 205.024 11.686 205.024 11.285C205.024 10.847 204.879 10.5277 204.588 10.3272C204.419 10.2005 204.05 10.1372 203.479 10.1372H201.324L200.785 13.2559Z"/>
<path d="M207.78 19.8021L209.769 8.19789H216.828L216.495 10.1372H211.401L210.949 12.7731H215.877L215.544 14.7124H210.616L210.07 17.8628H215.544L215.219 19.8021H207.78Z"/>
<path d="M217.46 16.0422L219.322 15.9235C219.349 16.5462 219.42 16.9789 219.536 17.2216C219.652 17.4644 219.845 17.657 220.114 17.7995C220.384 17.9367 220.751 18.0053 221.216 18.0053C221.818 18.0053 222.269 17.8734 222.57 17.6095C222.877 17.3456 223.03 17 223.03 16.5726C223.03 16.2718 222.943 16.0132 222.769 15.7968C222.594 15.5858 222.143 15.2876 221.414 14.9024C220.489 14.4116 219.874 14.0317 219.568 13.7625C219.267 13.4881 219.032 13.153 218.863 12.7573C218.699 12.3615 218.617 11.9103 218.617 11.4037C218.617 10.3694 218.921 9.54354 219.528 8.92612C220.136 8.30871 220.965 8 222.016 8C223.078 8 223.925 8.30607 224.559 8.91821C225.198 9.53034 225.549 10.3931 225.613 11.5066L223.735 11.6095C223.64 10.4644 223.064 9.89182 222.008 9.89182C221.485 9.89182 221.099 10.0026 220.851 10.2243C220.608 10.4406 220.487 10.7388 220.487 11.1187C220.487 11.467 220.603 11.7493 220.835 11.9657C221.062 12.1873 221.522 12.4828 222.214 12.8522C223.128 13.3325 223.735 13.7071 224.036 13.9763C224.337 14.2401 224.567 14.5673 224.725 14.9578C224.889 15.343 224.971 15.781 224.971 16.2718C224.971 17.3694 224.625 18.2665 223.933 18.9631C223.241 19.6544 222.328 20 221.192 20C220.336 20 219.605 19.8179 218.997 19.4538C218.395 19.0897 217.983 18.6042 217.761 17.9974C217.545 17.3905 217.444 16.7388 217.46 16.0422Z"/>
<path d="M226.847 16.0422L228.709 15.9235C228.736 16.5462 228.807 16.9789 228.923 17.2216C229.039 17.4644 229.232 17.657 229.502 17.7995C229.771 17.9367 230.138 18.0053 230.603 18.0053C231.205 18.0053 231.657 17.8734 231.958 17.6095C232.264 17.3456 232.417 17 232.417 16.5726C232.417 16.2718 232.33 16.0132 232.156 15.7968C231.981 15.5858 231.53 15.2876 230.801 14.9024C229.877 14.4116 229.261 14.0317 228.955 13.7625C228.654 13.4881 228.419 13.153 228.25 12.7573C228.086 12.3615 228.004 11.9103 228.004 11.4037C228.004 10.3694 228.308 9.54354 228.915 8.92612C229.523 8.30871 230.352 8 231.403 8C232.465 8 233.312 8.30607 233.946 8.91821C234.585 9.53034 234.937 10.3931 235 11.5066L233.122 11.6095C233.027 10.4644 232.451 9.89182 231.395 9.89182C230.872 9.89182 230.487 10.0026 230.238 10.2243C229.995 10.4406 229.874 10.7388 229.874 11.1187C229.874 11.467 229.99 11.7493 230.223 11.9657C230.45 12.1873 230.909 12.4828 231.601 12.8522C232.515 13.3325 233.122 13.7071 233.423 13.9763C233.724 14.2401 233.954 14.5673 234.113 14.9578C234.276 15.343 234.358 15.781 234.358 16.2718C234.358 17.3694 234.012 18.2665 233.32 18.9631C232.628 19.6544 231.715 20 230.579 20C229.723 20 228.992 19.8179 228.384 19.4538C227.782 19.0897 227.37 18.6042 227.148 17.9974C226.932 17.3905 226.832 16.7388 226.847 16.0422Z"/>
</mask>
<path d="M58 19.8021L59.9886 8.19789H66.6596L66.3269 10.1372H61.6207L61.1374 12.9235H65.7485L65.4158 14.8628H60.8047L59.9569 19.8021H58Z" fill="#F7D700"/>
<path d="M66.7296 19.8021L68.7182 8.19789H70.6831L69.0193 17.8628H73.868L73.5353 19.8021H66.7296Z" fill="#F7D700"/>
<path d="M78.6203 19.8021H76.6555L77.4398 15.2823L74.8095 8.19789H76.8932L78.0737 11.4749C78.3536 12.2559 78.5411 12.8232 78.6362 13.1768C78.8052 12.8232 78.9954 12.4565 79.2066 12.0765L80.1019 10.5488L81.4488 8.19789H83.7226L79.3572 15.504L78.6203 19.8021Z" fill="#F7D700"/>
<path d="M83.135 19.8021L85.1236 8.19789H87.0805L85.0919 19.8021H83.135Z" fill="#F7D700"/>
<path d="M95.0495 19.8021H93.2194L90.6444 12.0053L89.3134 19.8021H87.4832L89.4719 8.19789H91.302L93.877 15.9631L95.208 8.19789H97.0382L95.0495 19.8021Z" fill="#F7D700"/>
<path d="M102.86 13.6042H107.115L106.259 18.5831C105.731 19.0053 105.1 19.3483 104.365 19.6121C103.631 19.8707 102.902 20 102.179 20C100.922 20 99.9735 19.6253 99.3344 18.876C98.5685 17.9789 98.1856 16.7361 98.1856 15.1478C98.1856 13.7652 98.4471 12.496 98.97 11.3404C99.4981 10.1794 100.145 9.33245 100.911 8.79947C101.682 8.26649 102.543 8 103.494 8C104.54 8 105.406 8.30079 106.093 8.90237C106.779 9.50396 107.236 10.4222 107.463 11.657L105.641 11.9103C105.319 10.591 104.603 9.9314 103.494 9.9314C102.892 9.9314 102.337 10.1161 101.83 10.4855C101.323 10.8496 100.903 11.4433 100.57 12.2665C100.243 13.0897 100.079 14.0501 100.079 15.1478C100.079 16.1346 100.264 16.8575 100.634 17.3166C101.003 17.7757 101.537 18.0053 102.234 18.0053C102.625 18.0053 103.005 17.9472 103.375 17.8311C103.877 17.6781 104.305 17.4908 104.659 17.2691L104.96 15.5435H102.527L102.86 13.6042Z" fill="#F7D700"/>
<path d="M116.794 19.8021H114.837L116.5 10.1372H113.704L114.036 8.19789H121.539L121.207 10.1372H118.457L116.794 19.8021Z" fill="#F7D700"/>
<path d="M121.213 19.8021L123.202 8.19789H125.159L123.17 19.8021H121.213Z" fill="#F7D700"/>
<path d="M130.822 13.6042H135.077L134.221 18.5831C133.693 19.0053 133.062 19.3483 132.327 19.6121C131.593 19.8707 130.864 20 130.141 20C128.884 20 127.936 19.6253 127.296 18.876C126.531 17.9789 126.148 16.7361 126.148 15.1478C126.148 13.7652 126.409 12.496 126.932 11.3404C127.46 10.1794 128.107 9.33245 128.873 8.79947C129.644 8.26649 130.505 8 131.456 8C132.502 8 133.368 8.30079 134.055 8.90237C134.741 9.50396 135.198 10.4222 135.425 11.657L133.603 11.9103C133.281 10.591 132.565 9.9314 131.456 9.9314C130.854 9.9314 130.299 10.1161 129.792 10.4855C129.285 10.8496 128.865 11.4433 128.532 12.2665C128.205 13.0897 128.041 14.0501 128.041 15.1478C128.041 16.1346 128.226 16.8575 128.596 17.3166C128.966 17.7757 129.499 18.0053 130.196 18.0053C130.587 18.0053 130.967 17.9472 131.337 17.8311C131.839 17.6781 132.267 17.4908 132.621 17.2691L132.922 15.5435H130.489L130.822 13.6042Z" fill="#F7D700"/>
<path d="M136.39 19.8021L138.379 8.19789H145.438L145.106 10.1372H140.011L139.56 12.7731H144.488L144.155 14.7124H139.227L138.68 17.8628H144.155L143.83 19.8021H136.39Z" fill="#F7D700"/>
<path d="M147.774 19.8021H145.817L147.806 8.19789H152.045C152.826 8.19789 153.41 8.30079 153.796 8.5066C154.181 8.7124 154.493 9.04485 154.73 9.50396C154.973 9.96306 155.095 10.5435 155.095 11.2454C155.095 12.2744 154.841 13.1003 154.334 13.723C153.833 14.3404 153.109 14.723 152.163 14.8707C152.428 15.1609 152.686 15.5726 152.94 16.1055C153.362 17.0026 153.827 18.2348 154.334 19.8021H152.227C152.142 19.4749 151.857 18.5858 151.371 17.1346C151.118 16.3905 150.885 15.8654 150.674 15.5594C150.521 15.343 150.365 15.1953 150.207 15.1161C150.048 15.0369 149.781 14.9974 149.406 14.9974H148.598L147.774 19.8021ZM148.899 13.2559H149.937C150.92 13.2559 151.582 13.1953 151.926 13.0739C152.274 12.9472 152.562 12.7177 152.789 12.3852C153.022 12.0528 153.138 11.686 153.138 11.285C153.138 10.847 152.993 10.5277 152.702 10.3272C152.533 10.2005 152.163 10.1372 151.593 10.1372H149.438L148.899 13.2559Z" fill="#F7D700"/>
<path d="M156.187 16.0422L158.049 15.9235C158.075 16.5462 158.146 16.9789 158.263 17.2216C158.379 17.4644 158.572 17.657 158.841 17.7995C159.11 17.9367 159.477 18.0053 159.942 18.0053C160.544 18.0053 160.996 17.8734 161.297 17.6095C161.603 17.3456 161.757 17 161.757 16.5726C161.757 16.2718 161.669 16.0132 161.495 15.7968C161.321 15.5858 160.869 15.2876 160.14 14.9024C159.216 14.4116 158.601 14.0317 158.294 13.7625C157.993 13.4881 157.758 13.153 157.589 12.7573C157.425 12.3615 157.344 11.9103 157.344 11.4037C157.344 10.3694 157.647 9.54354 158.255 8.92612C158.862 8.30871 159.691 8 160.742 8C161.804 8 162.652 8.30607 163.286 8.91821C163.925 9.53034 164.276 10.3931 164.339 11.5066L162.462 11.6095C162.367 10.4644 161.791 9.89182 160.735 9.89182C160.212 9.89182 159.826 10.0026 159.578 10.2243C159.335 10.4406 159.213 10.7388 159.213 11.1187C159.213 11.467 159.33 11.7493 159.562 11.9657C159.789 12.1873 160.249 12.4828 160.941 12.8522C161.854 13.3325 162.462 13.7071 162.763 13.9763C163.064 14.2401 163.294 14.5673 163.452 14.9578C163.616 15.343 163.698 15.781 163.698 16.2718C163.698 17.3694 163.352 18.2665 162.66 18.9631C161.968 19.6544 161.054 20 159.919 20C159.063 20 158.331 19.8179 157.724 19.4538C157.122 19.0897 156.71 18.6042 156.488 17.9974C156.271 17.3905 156.171 16.7388 156.187 16.0422Z" fill="#F7D700"/>
<path d="M169.502 19.8021L171.491 8.19789H178.55L178.217 10.1372H173.123L172.672 12.7731H177.599L177.267 14.7124H172.339L171.792 17.8628H177.267L176.942 19.8021H169.502Z" fill="#F7D700"/>
<path d="M180.482 19.8021H177.947L182.154 13.9288L179.785 8.19789H181.837L182.756 10.3747C183.089 11.1557 183.329 11.7625 183.477 12.1953C184.005 11.409 184.451 10.7652 184.816 10.2639L186.313 8.19789H188.769L184.42 14.3087L186.765 19.8021H184.554L183.841 18.0528C183.461 17.1187 183.213 16.4565 183.097 16.066C182.933 16.372 182.497 17.0158 181.789 17.9974L180.482 19.8021Z" fill="#F7D700"/>
<path d="M190.234 19.8021H188.277L190.265 8.19789H194.14C194.858 8.19789 195.41 8.30079 195.795 8.5066C196.181 8.7124 196.49 9.03694 196.722 9.48021C196.96 9.91821 197.079 10.4565 197.079 11.095C197.079 11.8654 196.936 12.5752 196.651 13.2243C196.371 13.8681 196.02 14.3456 195.597 14.657C195.18 14.9683 194.684 15.1794 194.108 15.2902C193.796 15.3483 193.178 15.3773 192.254 15.3773H190.994L190.234 19.8021ZM191.327 13.4538H191.929C192.896 13.4538 193.553 13.3879 193.902 13.2559C194.256 13.124 194.546 12.8839 194.773 12.5356C195.001 12.1821 195.114 11.7731 195.114 11.3087C195.114 10.8074 194.95 10.4617 194.623 10.2718C194.433 10.1609 193.994 10.1055 193.308 10.1055H191.897L191.327 13.4538Z" fill="#F7D700"/>
<path d="M199.66 19.8021H197.704L199.692 8.19789H203.931C204.713 8.19789 205.296 8.30079 205.682 8.5066C206.067 8.7124 206.379 9.04485 206.617 9.50396C206.86 9.96306 206.981 10.5435 206.981 11.2454C206.981 12.2744 206.728 13.1003 206.221 13.723C205.719 14.3404 204.995 14.723 204.05 14.8707C204.314 15.1609 204.573 15.5726 204.826 16.1055C205.249 17.0026 205.713 18.2348 206.221 19.8021H204.113C204.029 19.4749 203.743 18.5858 203.257 17.1346C203.004 16.3905 202.771 15.8654 202.56 15.5594C202.407 15.343 202.251 15.1953 202.093 15.1161C201.934 15.0369 201.668 14.9974 201.293 14.9974H200.484L199.66 19.8021ZM200.785 13.2559H201.823C202.806 13.2559 203.469 13.1953 203.812 13.0739C204.161 12.9472 204.448 12.7177 204.676 12.3852C204.908 12.0528 205.024 11.686 205.024 11.285C205.024 10.847 204.879 10.5277 204.588 10.3272C204.419 10.2005 204.05 10.1372 203.479 10.1372H201.324L200.785 13.2559Z" fill="#F7D700"/>
<path d="M207.78 19.8021L209.769 8.19789H216.828L216.495 10.1372H211.401L210.949 12.7731H215.877L215.544 14.7124H210.616L210.07 17.8628H215.544L215.219 19.8021H207.78Z" fill="#F7D700"/>
<path d="M217.46 16.0422L219.322 15.9235C219.349 16.5462 219.42 16.9789 219.536 17.2216C219.652 17.4644 219.845 17.657 220.114 17.7995C220.384 17.9367 220.751 18.0053 221.216 18.0053C221.818 18.0053 222.269 17.8734 222.57 17.6095C222.877 17.3456 223.03 17 223.03 16.5726C223.03 16.2718 222.943 16.0132 222.769 15.7968C222.594 15.5858 222.143 15.2876 221.414 14.9024C220.489 14.4116 219.874 14.0317 219.568 13.7625C219.267 13.4881 219.032 13.153 218.863 12.7573C218.699 12.3615 218.617 11.9103 218.617 11.4037C218.617 10.3694 218.921 9.54354 219.528 8.92612C220.136 8.30871 220.965 8 222.016 8C223.078 8 223.925 8.30607 224.559 8.91821C225.198 9.53034 225.549 10.3931 225.613 11.5066L223.735 11.6095C223.64 10.4644 223.064 9.89182 222.008 9.89182C221.485 9.89182 221.099 10.0026 220.851 10.2243C220.608 10.4406 220.487 10.7388 220.487 11.1187C220.487 11.467 220.603 11.7493 220.835 11.9657C221.062 12.1873 221.522 12.4828 222.214 12.8522C223.128 13.3325 223.735 13.7071 224.036 13.9763C224.337 14.2401 224.567 14.5673 224.725 14.9578C224.889 15.343 224.971 15.781 224.971 16.2718C224.971 17.3694 224.625 18.2665 223.933 18.9631C223.241 19.6544 222.328 20 221.192 20C220.336 20 219.605 19.8179 218.997 19.4538C218.395 19.0897 217.983 18.6042 217.761 17.9974C217.545 17.3905 217.444 16.7388 217.46 16.0422Z" fill="#F7D700"/>
<path d="M226.847 16.0422L228.709 15.9235C228.736 16.5462 228.807 16.9789 228.923 17.2216C229.039 17.4644 229.232 17.657 229.502 17.7995C229.771 17.9367 230.138 18.0053 230.603 18.0053C231.205 18.0053 231.657 17.8734 231.958 17.6095C232.264 17.3456 232.417 17 232.417 16.5726C232.417 16.2718 232.33 16.0132 232.156 15.7968C231.981 15.5858 231.53 15.2876 230.801 14.9024C229.877 14.4116 229.261 14.0317 228.955 13.7625C228.654 13.4881 228.419 13.153 228.25 12.7573C228.086 12.3615 228.004 11.9103 228.004 11.4037C228.004 10.3694 228.308 9.54354 228.915 8.92612C229.523 8.30871 230.352 8 231.403 8C232.465 8 233.312 8.30607 233.946 8.91821C234.585 9.53034 234.937 10.3931 235 11.5066L233.122 11.6095C233.027 10.4644 232.451 9.89182 231.395 9.89182C230.872 9.89182 230.487 10.0026 230.238 10.2243C229.995 10.4406 229.874 10.7388 229.874 11.1187C229.874 11.467 229.99 11.7493 230.223 11.9657C230.45 12.1873 230.909 12.4828 231.601 12.8522C232.515 13.3325 233.122 13.7071 233.423 13.9763C233.724 14.2401 233.954 14.5673 234.113 14.9578C234.276 15.343 234.358 15.781 234.358 16.2718C234.358 17.3694 234.012 18.2665 233.32 18.9631C232.628 19.6544 231.715 20 230.579 20C229.723 20 228.992 19.8179 228.384 19.4538C227.782 19.0897 227.37 18.6042 227.148 17.9974C226.932 17.3905 226.832 16.7388 226.847 16.0422Z" fill="#F7D700"/>
<path d="M58 19.8021L59.9886 8.19789H66.6596L66.3269 10.1372H61.6207L61.1374 12.9235H65.7485L65.4158 14.8628H60.8047L59.9569 19.8021H58Z" stroke="#F7D700" stroke-width="0.4" mask="url(#path-2-outside-1_7069_38555)"/>
<path d="M66.7296 19.8021L68.7182 8.19789H70.6831L69.0193 17.8628H73.868L73.5353 19.8021H66.7296Z" stroke="#F7D700" stroke-width="0.4" mask="url(#path-2-outside-1_7069_38555)"/>
<path d="M78.6203 19.8021H76.6555L77.4398 15.2823L74.8095 8.19789H76.8932L78.0737 11.4749C78.3536 12.2559 78.5411 12.8232 78.6362 13.1768C78.8052 12.8232 78.9954 12.4565 79.2066 12.0765L80.1019 10.5488L81.4488 8.19789H83.7226L79.3572 15.504L78.6203 19.8021Z" stroke="#F7D700" stroke-width="0.4" mask="url(#path-2-outside-1_7069_38555)"/>
<path d="M83.135 19.8021L85.1236 8.19789H87.0805L85.0919 19.8021H83.135Z" stroke="#F7D700" stroke-width="0.4" mask="url(#path-2-outside-1_7069_38555)"/>
<path d="M95.0495 19.8021H93.2194L90.6444 12.0053L89.3134 19.8021H87.4832L89.4719 8.19789H91.302L93.877 15.9631L95.208 8.19789H97.0382L95.0495 19.8021Z" stroke="#F7D700" stroke-width="0.4" mask="url(#path-2-outside-1_7069_38555)"/>
<path d="M102.86 13.6042H107.115L106.259 18.5831C105.731 19.0053 105.1 19.3483 104.365 19.6121C103.631 19.8707 102.902 20 102.179 20C100.922 20 99.9735 19.6253 99.3344 18.876C98.5685 17.9789 98.1856 16.7361 98.1856 15.1478C98.1856 13.7652 98.4471 12.496 98.97 11.3404C99.4981 10.1794 100.145 9.33245 100.911 8.79947C101.682 8.26649 102.543 8 103.494 8C104.54 8 105.406 8.30079 106.093 8.90237C106.779 9.50396 107.236 10.4222 107.463 11.657L105.641 11.9103C105.319 10.591 104.603 9.9314 103.494 9.9314C102.892 9.9314 102.337 10.1161 101.83 10.4855C101.323 10.8496 100.903 11.4433 100.57 12.2665C100.243 13.0897 100.079 14.0501 100.079 15.1478C100.079 16.1346 100.264 16.8575 100.634 17.3166C101.003 17.7757 101.537 18.0053 102.234 18.0053C102.625 18.0053 103.005 17.9472 103.375 17.8311C103.877 17.6781 104.305 17.4908 104.659 17.2691L104.96 15.5435H102.527L102.86 13.6042Z" stroke="#F7D700" stroke-width="0.4" mask="url(#path-2-outside-1_7069_38555)"/>
<path d="M116.794 19.8021H114.837L116.5 10.1372H113.704L114.036 8.19789H121.539L121.207 10.1372H118.457L116.794 19.8021Z" stroke="#F7D700" stroke-width="0.4" mask="url(#path-2-outside-1_7069_38555)"/>
<path d="M121.213 19.8021L123.202 8.19789H125.159L123.17 19.8021H121.213Z" stroke="#F7D700" stroke-width="0.4" mask="url(#path-2-outside-1_7069_38555)"/>
<path d="M130.822 13.6042H135.077L134.221 18.5831C133.693 19.0053 133.062 19.3483 132.327 19.6121C131.593 19.8707 130.864 20 130.141 20C128.884 20 127.936 19.6253 127.296 18.876C126.531 17.9789 126.148 16.7361 126.148 15.1478C126.148 13.7652 126.409 12.496 126.932 11.3404C127.46 10.1794 128.107 9.33245 128.873 8.79947C129.644 8.26649 130.505 8 131.456 8C132.502 8 133.368 8.30079 134.055 8.90237C134.741 9.50396 135.198 10.4222 135.425 11.657L133.603 11.9103C133.281 10.591 132.565 9.9314 131.456 9.9314C130.854 9.9314 130.299 10.1161 129.792 10.4855C129.285 10.8496 128.865 11.4433 128.532 12.2665C128.205 13.0897 128.041 14.0501 128.041 15.1478C128.041 16.1346 128.226 16.8575 128.596 17.3166C128.966 17.7757 129.499 18.0053 130.196 18.0053C130.587 18.0053 130.967 17.9472 131.337 17.8311C131.839 17.6781 132.267 17.4908 132.621 17.2691L132.922 15.5435H130.489L130.822 13.6042Z" stroke="#F7D700" stroke-width="0.4" mask="url(#path-2-outside-1_7069_38555)"/>
<path d="M136.39 19.8021L138.379 8.19789H145.438L145.106 10.1372H140.011L139.56 12.7731H144.488L144.155 14.7124H139.227L138.68 17.8628H144.155L143.83 19.8021H136.39Z" stroke="#F7D700" stroke-width="0.4" mask="url(#path-2-outside-1_7069_38555)"/>
<path d="M147.774 19.8021H145.817L147.806 8.19789H152.045C152.826 8.19789 153.41 8.30079 153.796 8.5066C154.181 8.7124 154.493 9.04485 154.73 9.50396C154.973 9.96306 155.095 10.5435 155.095 11.2454C155.095 12.2744 154.841 13.1003 154.334 13.723C153.833 14.3404 153.109 14.723 152.163 14.8707C152.428 15.1609 152.686 15.5726 152.94 16.1055C153.362 17.0026 153.827 18.2348 154.334 19.8021H152.227C152.142 19.4749 151.857 18.5858 151.371 17.1346C151.118 16.3905 150.885 15.8654 150.674 15.5594C150.521 15.343 150.365 15.1953 150.207 15.1161C150.048 15.0369 149.781 14.9974 149.406 14.9974H148.598L147.774 19.8021ZM148.899 13.2559H149.937C150.92 13.2559 151.582 13.1953 151.926 13.0739C152.274 12.9472 152.562 12.7177 152.789 12.3852C153.022 12.0528 153.138 11.686 153.138 11.285C153.138 10.847 152.993 10.5277 152.702 10.3272C152.533 10.2005 152.163 10.1372 151.593 10.1372H149.438L148.899 13.2559Z" stroke="#F7D700" stroke-width="0.4" mask="url(#path-2-outside-1_7069_38555)"/>
<path d="M156.187 16.0422L158.049 15.9235C158.075 16.5462 158.146 16.9789 158.263 17.2216C158.379 17.4644 158.572 17.657 158.841 17.7995C159.11 17.9367 159.477 18.0053 159.942 18.0053C160.544 18.0053 160.996 17.8734 161.297 17.6095C161.603 17.3456 161.757 17 161.757 16.5726C161.757 16.2718 161.669 16.0132 161.495 15.7968C161.321 15.5858 160.869 15.2876 160.14 14.9024C159.216 14.4116 158.601 14.0317 158.294 13.7625C157.993 13.4881 157.758 13.153 157.589 12.7573C157.425 12.3615 157.344 11.9103 157.344 11.4037C157.344 10.3694 157.647 9.54354 158.255 8.92612C158.862 8.30871 159.691 8 160.742 8C161.804 8 162.652 8.30607 163.286 8.91821C163.925 9.53034 164.276 10.3931 164.339 11.5066L162.462 11.6095C162.367 10.4644 161.791 9.89182 160.735 9.89182C160.212 9.89182 159.826 10.0026 159.578 10.2243C159.335 10.4406 159.213 10.7388 159.213 11.1187C159.213 11.467 159.33 11.7493 159.562 11.9657C159.789 12.1873 160.249 12.4828 160.941 12.8522C161.854 13.3325 162.462 13.7071 162.763 13.9763C163.064 14.2401 163.294 14.5673 163.452 14.9578C163.616 15.343 163.698 15.781 163.698 16.2718C163.698 17.3694 163.352 18.2665 162.66 18.9631C161.968 19.6544 161.054 20 159.919 20C159.063 20 158.331 19.8179 157.724 19.4538C157.122 19.0897 156.71 18.6042 156.488 17.9974C156.271 17.3905 156.171 16.7388 156.187 16.0422Z" stroke="#F7D700" stroke-width="0.4" mask="url(#path-2-outside-1_7069_38555)"/>
<path d="M169.502 19.8021L171.491 8.19789H178.55L178.217 10.1372H173.123L172.672 12.7731H177.599L177.267 14.7124H172.339L171.792 17.8628H177.267L176.942 19.8021H169.502Z" stroke="#F7D700" stroke-width="0.4" mask="url(#path-2-outside-1_7069_38555)"/>
<path d="M180.482 19.8021H177.947L182.154 13.9288L179.785 8.19789H181.837L182.756 10.3747C183.089 11.1557 183.329 11.7625 183.477 12.1953C184.005 11.409 184.451 10.7652 184.816 10.2639L186.313 8.19789H188.769L184.42 14.3087L186.765 19.8021H184.554L183.841 18.0528C183.461 17.1187 183.213 16.4565 183.097 16.066C182.933 16.372 182.497 17.0158 181.789 17.9974L180.482 19.8021Z" stroke="#F7D700" stroke-width="0.4" mask="url(#path-2-outside-1_7069_38555)"/>
<path d="M190.234 19.8021H188.277L190.265 8.19789H194.14C194.858 8.19789 195.41 8.30079 195.795 8.5066C196.181 8.7124 196.49 9.03694 196.722 9.48021C196.96 9.91821 197.079 10.4565 197.079 11.095C197.079 11.8654 196.936 12.5752 196.651 13.2243C196.371 13.8681 196.02 14.3456 195.597 14.657C195.18 14.9683 194.684 15.1794 194.108 15.2902C193.796 15.3483 193.178 15.3773 192.254 15.3773H190.994L190.234 19.8021ZM191.327 13.4538H191.929C192.896 13.4538 193.553 13.3879 193.902 13.2559C194.256 13.124 194.546 12.8839 194.773 12.5356C195.001 12.1821 195.114 11.7731 195.114 11.3087C195.114 10.8074 194.95 10.4617 194.623 10.2718C194.433 10.1609 193.994 10.1055 193.308 10.1055H191.897L191.327 13.4538Z" stroke="#F7D700" stroke-width="0.4" mask="url(#path-2-outside-1_7069_38555)"/>
<path d="M199.66 19.8021H197.704L199.692 8.19789H203.931C204.713 8.19789 205.296 8.30079 205.682 8.5066C206.067 8.7124 206.379 9.04485 206.617 9.50396C206.86 9.96306 206.981 10.5435 206.981 11.2454C206.981 12.2744 206.728 13.1003 206.221 13.723C205.719 14.3404 204.995 14.723 204.05 14.8707C204.314 15.1609 204.573 15.5726 204.826 16.1055C205.249 17.0026 205.713 18.2348 206.221 19.8021H204.113C204.029 19.4749 203.743 18.5858 203.257 17.1346C203.004 16.3905 202.771 15.8654 202.56 15.5594C202.407 15.343 202.251 15.1953 202.093 15.1161C201.934 15.0369 201.668 14.9974 201.293 14.9974H200.484L199.66 19.8021ZM200.785 13.2559H201.823C202.806 13.2559 203.469 13.1953 203.812 13.0739C204.161 12.9472 204.448 12.7177 204.676 12.3852C204.908 12.0528 205.024 11.686 205.024 11.285C205.024 10.847 204.879 10.5277 204.588 10.3272C204.419 10.2005 204.05 10.1372 203.479 10.1372H201.324L200.785 13.2559Z" stroke="#F7D700" stroke-width="0.4" mask="url(#path-2-outside-1_7069_38555)"/>
<path d="M207.78 19.8021L209.769 8.19789H216.828L216.495 10.1372H211.401L210.949 12.7731H215.877L215.544 14.7124H210.616L210.07 17.8628H215.544L215.219 19.8021H207.78Z" stroke="#F7D700" stroke-width="0.4" mask="url(#path-2-outside-1_7069_38555)"/>
<path d="M217.46 16.0422L219.322 15.9235C219.349 16.5462 219.42 16.9789 219.536 17.2216C219.652 17.4644 219.845 17.657 220.114 17.7995C220.384 17.9367 220.751 18.0053 221.216 18.0053C221.818 18.0053 222.269 17.8734 222.57 17.6095C222.877 17.3456 223.03 17 223.03 16.5726C223.03 16.2718 222.943 16.0132 222.769 15.7968C222.594 15.5858 222.143 15.2876 221.414 14.9024C220.489 14.4116 219.874 14.0317 219.568 13.7625C219.267 13.4881 219.032 13.153 218.863 12.7573C218.699 12.3615 218.617 11.9103 218.617 11.4037C218.617 10.3694 218.921 9.54354 219.528 8.92612C220.136 8.30871 220.965 8 222.016 8C223.078 8 223.925 8.30607 224.559 8.91821C225.198 9.53034 225.549 10.3931 225.613 11.5066L223.735 11.6095C223.64 10.4644 223.064 9.89182 222.008 9.89182C221.485 9.89182 221.099 10.0026 220.851 10.2243C220.608 10.4406 220.487 10.7388 220.487 11.1187C220.487 11.467 220.603 11.7493 220.835 11.9657C221.062 12.1873 221.522 12.4828 222.214 12.8522C223.128 13.3325 223.735 13.7071 224.036 13.9763C224.337 14.2401 224.567 14.5673 224.725 14.9578C224.889 15.343 224.971 15.781 224.971 16.2718C224.971 17.3694 224.625 18.2665 223.933 18.9631C223.241 19.6544 222.328 20 221.192 20C220.336 20 219.605 19.8179 218.997 19.4538C218.395 19.0897 217.983 18.6042 217.761 17.9974C217.545 17.3905 217.444 16.7388 217.46 16.0422Z" stroke="#F7D700" stroke-width="0.4" mask="url(#path-2-outside-1_7069_38555)"/>
<path d="M226.847 16.0422L228.709 15.9235C228.736 16.5462 228.807 16.9789 228.923 17.2216C229.039 17.4644 229.232 17.657 229.502 17.7995C229.771 17.9367 230.138 18.0053 230.603 18.0053C231.205 18.0053 231.657 17.8734 231.958 17.6095C232.264 17.3456 232.417 17 232.417 16.5726C232.417 16.2718 232.33 16.0132 232.156 15.7968C231.981 15.5858 231.53 15.2876 230.801 14.9024C229.877 14.4116 229.261 14.0317 228.955 13.7625C228.654 13.4881 228.419 13.153 228.25 12.7573C228.086 12.3615 228.004 11.9103 228.004 11.4037C228.004 10.3694 228.308 9.54354 228.915 8.92612C229.523 8.30871 230.352 8 231.403 8C232.465 8 233.312 8.30607 233.946 8.91821C234.585 9.53034 234.937 10.3931 235 11.5066L233.122 11.6095C233.027 10.4644 232.451 9.89182 231.395 9.89182C230.872 9.89182 230.487 10.0026 230.238 10.2243C229.995 10.4406 229.874 10.7388 229.874 11.1187C229.874 11.467 229.99 11.7493 230.223 11.9657C230.45 12.1873 230.909 12.4828 231.601 12.8522C232.515 13.3325 233.122 13.7071 233.423 13.9763C233.724 14.2401 233.954 14.5673 234.113 14.9578C234.276 15.343 234.358 15.781 234.358 16.2718C234.358 17.3694 234.012 18.2665 233.32 18.9631C232.628 19.6544 231.715 20 230.579 20C229.723 20 228.992 19.8179 228.384 19.4538C227.782 19.0897 227.37 18.6042 227.148 17.9974C226.932 17.3905 226.832 16.7388 226.847 16.0422Z" stroke="#F7D700" stroke-width="0.4" mask="url(#path-2-outside-1_7069_38555)"/>
<mask id="path-3-outside-2_7069_38555" maskUnits="userSpaceOnUse" x="-54" y="21" width="179" height="14" fill="black">
<rect fill="white" x="-54" y="21" width="179" height="14"/>
<path d="M-53 33.8021L-51.0114 22.1979H-44.3404L-44.6731 24.1372H-49.3793L-49.8626 26.9235H-45.2515L-45.5842 28.8628H-50.1953L-51.0431 33.8021H-53Z"/>
<path d="M-44.2704 33.8021L-42.2818 22.1979H-40.3169L-41.9807 31.8628H-37.132L-37.4647 33.8021H-44.2704Z"/>
<path d="M-32.3797 33.8021H-34.3445L-33.5602 29.2823L-36.1905 22.1979H-34.1068L-32.9263 25.4749C-32.6464 26.2559 -32.4589 26.8232 -32.3638 27.1768C-32.1948 26.8232 -32.0046 26.4565 -31.7934 26.0765L-30.8981 24.5488L-29.5512 22.1979H-27.2774L-31.6428 29.504L-32.3797 33.8021Z"/>
<path d="M-27.865 33.8021L-25.8764 22.1979H-23.9195L-25.9081 33.8021H-27.865Z"/>
<path d="M-15.9505 33.8021H-17.7806L-20.3556 26.0053L-21.6866 33.8021H-23.5168L-21.5281 22.1979H-19.698L-17.123 29.9631L-15.792 22.1979H-13.9618L-15.9505 33.8021Z"/>
<path d="M-8.13994 27.6042H-3.88539L-4.74105 32.5831C-5.26924 33.0053 -5.90042 33.3483 -6.63461 33.6121C-7.36879 33.8707 -8.09769 34 -8.8213 34C-10.0784 34 -11.0265 33.6253 -11.6656 32.876C-12.4315 31.9789 -12.8144 30.7361 -12.8144 29.1478C-12.8144 27.7652 -12.5529 26.496 -12.03 25.3404C-11.5019 24.1794 -10.8548 23.3325 -10.089 22.7995C-9.3178 22.2665 -8.45685 22 -7.50611 22C-6.4603 22 -5.59407 22.3008 -4.90743 22.9024C-4.22079 23.504 -3.7639 24.4222 -3.53679 25.657L-5.35903 25.9103C-5.68123 24.591 -6.39692 23.9314 -7.50611 23.9314C-8.10825 23.9314 -8.66285 24.1161 -9.16991 24.4855C-9.67697 24.8496 -10.0969 25.4433 -10.4296 26.2665C-10.7571 27.0897 -10.9208 28.0501 -10.9208 29.1478C-10.9208 30.1346 -10.736 30.8575 -10.3663 31.3166C-9.99652 31.7757 -9.46305 32.0053 -8.76584 32.0053C-8.37498 32.0053 -7.99469 31.9472 -7.62496 31.8311C-7.12318 31.6781 -6.69535 31.4908 -6.34146 31.2691L-6.0404 29.5435H-8.4727L-8.13994 27.6042Z"/>
<path d="M5.79355 33.8021H3.83662L5.50041 24.1372H2.70366L3.03642 22.1979H10.5393L10.2066 24.1372H7.45734L5.79355 33.8021Z"/>
<path d="M10.2131 33.8021L12.2017 22.1979H14.1587L12.1701 33.8021H10.2131Z"/>
<path d="M19.8221 27.6042H24.0767L23.221 32.5831C22.6928 33.0053 22.0616 33.3483 21.3275 33.6121C20.5933 33.8707 19.8644 34 19.1408 34C17.8837 34 16.9356 33.6253 16.2965 32.876C15.5306 31.9789 15.1477 30.7361 15.1477 29.1478C15.1477 27.7652 15.4091 26.496 15.932 25.3404C16.4602 24.1794 17.1072 23.3325 17.8731 22.7995C18.6443 22.2665 19.5052 22 20.4559 22C21.5018 22 22.368 22.3008 23.0546 22.9024C23.7413 23.504 24.1982 24.4222 24.4253 25.657L22.603 25.9103C22.2808 24.591 21.5651 23.9314 20.4559 23.9314C19.8538 23.9314 19.2992 24.1161 18.7922 24.4855C18.2851 24.8496 17.8652 25.4433 17.5324 26.2665C17.205 27.0897 17.0412 28.0501 17.0412 29.1478C17.0412 30.1346 17.2261 30.8575 17.5958 31.3166C17.9655 31.7757 18.499 32.0053 19.1962 32.0053C19.5871 32.0053 19.9674 31.9472 20.3371 31.8311C20.8389 31.6781 21.2667 31.4908 21.6206 31.2691L21.9217 29.5435H19.4894L19.8221 27.6042Z"/>
<path d="M25.3905 33.8021L27.3791 22.1979H34.4384L34.1056 24.1372H29.0112L28.5596 26.7731H33.4876L33.1549 28.7124H28.2269L27.6802 31.8628H33.1549L32.83 33.8021H25.3905Z"/>
<path d="M36.7742 33.8021H34.8173L36.8059 22.1979H41.0446C41.8263 22.1979 42.41 22.3008 42.7956 22.5066C43.1811 22.7124 43.4928 23.0449 43.7304 23.504C43.9734 23.9631 44.0949 24.5435 44.0949 25.2454C44.0949 26.2744 43.8414 27.1003 43.3343 27.723C42.8325 28.3404 42.1089 28.723 41.1635 28.8707C41.4275 29.1609 41.6864 29.5726 41.9399 30.1055C42.3624 31.0026 42.8272 32.2348 43.3343 33.8021H41.2268C41.1423 33.4749 40.8571 32.5858 40.3712 31.1346C40.1176 30.3905 39.8852 29.8654 39.674 29.5594C39.5208 29.343 39.365 29.1953 39.2065 29.1161C39.0481 29.0369 38.7813 28.9974 38.4063 28.9974H37.5982L36.7742 33.8021ZM37.8993 27.2559H38.9371C39.9196 27.2559 40.5824 27.1953 40.9258 27.0739C41.2744 26.9472 41.5622 26.7177 41.7894 26.3852C42.0218 26.0528 42.138 25.686 42.138 25.285C42.138 24.847 41.9927 24.5277 41.7022 24.3272C41.5332 24.2005 41.1634 24.1372 40.593 24.1372H38.438L37.8993 27.2559Z"/>
<path d="M45.1869 30.0422L47.0487 29.9235C47.0751 30.5462 47.1464 30.9789 47.2626 31.2216C47.3788 31.4644 47.5716 31.657 47.841 31.7995C48.1104 31.9367 48.4775 32.0053 48.9423 32.0053C49.5444 32.0053 49.996 31.8734 50.2971 31.6095C50.6034 31.3456 50.7566 31 50.7566 30.5726C50.7566 30.2718 50.6694 30.0132 50.4951 29.7968C50.3208 29.5858 49.8692 29.2876 49.1404 28.9024C48.216 28.4116 47.6007 28.0317 47.2943 27.7625C46.9933 27.4881 46.7582 27.153 46.5892 26.7573C46.4255 26.3615 46.3436 25.9103 46.3436 25.4037C46.3436 24.3694 46.6473 23.5435 47.2547 22.9261C47.8621 22.3087 48.6914 22 49.7425 22C50.8041 22 51.6519 22.3061 52.2857 22.9182C52.9248 23.5303 53.2761 24.3931 53.3394 25.5066L51.4617 25.6095C51.3667 24.4644 50.7909 23.8918 49.7346 23.8918C49.2117 23.8918 48.8261 24.0026 48.5778 24.2243C48.3349 24.4406 48.2134 24.7388 48.2134 25.1187C48.2134 25.467 48.3296 25.7493 48.562 25.9657C48.7891 26.1873 49.2486 26.4828 49.9406 26.8522C50.8543 27.3325 51.4617 27.7071 51.7628 27.9763C52.0639 28.2401 52.2936 28.5673 52.4521 28.9578C52.6158 29.343 52.6977 29.781 52.6977 30.2718C52.6977 31.3694 52.3517 32.2665 51.6598 32.9631C50.9679 33.6544 50.0541 34 48.9185 34C48.0629 34 47.3313 33.8179 46.7239 33.4538C46.1218 33.0897 45.7098 32.6042 45.4879 31.9974C45.2714 31.3905 45.171 30.7388 45.1869 30.0422Z"/>
<path d="M58.5024 33.8021L60.491 22.1979H67.5502L67.2175 24.1372H62.1231L61.6715 26.7731H66.5995L66.2667 28.7124H61.3388L60.7921 31.8628H66.2667L65.9419 33.8021H58.5024Z"/>
<path d="M69.482 33.8021H66.9467L71.1537 27.9288L68.7848 22.1979H70.8368L71.7559 24.3747C72.0886 25.1557 72.329 25.7625 72.4769 26.1953C73.005 25.409 73.4514 24.7652 73.8158 24.2639L75.3132 22.1979H77.7693L73.4197 28.3087L75.7648 33.8021H73.5544L72.8413 32.0528C72.461 31.1187 72.2128 30.4565 72.0966 30.066C71.9328 30.372 71.4971 31.0158 70.7893 31.9974L69.482 33.8021Z"/>
<path d="M79.2337 33.8021H77.2767L79.2654 22.1979H83.1396C83.8579 22.1979 84.4099 22.3008 84.7955 22.5066C85.181 22.7124 85.49 23.0369 85.7224 23.4802C85.9601 23.9182 86.079 24.4565 86.079 25.095C86.079 25.8654 85.9364 26.5752 85.6511 27.2243C85.3712 27.8681 85.0199 28.3456 84.5974 28.657C84.1801 28.9683 83.6836 29.1794 83.1079 29.2902C82.7963 29.3483 82.1783 29.3773 81.254 29.3773H79.9942L79.2337 33.8021ZM80.327 27.4538H80.9291C81.8957 27.4538 82.5533 27.3879 82.9019 27.2559C83.2558 27.124 83.5463 26.8839 83.7734 26.5356C84.0005 26.1821 84.1141 25.7731 84.1141 25.3087C84.1141 24.8074 83.9504 24.4617 83.6229 24.2718C83.4328 24.1609 82.9944 24.1055 82.3077 24.1055H80.8974L80.327 27.4538Z"/>
<path d="M88.6604 33.8021H86.7035L88.6921 22.1979H92.9308C93.7126 22.1979 94.2962 22.3008 94.6818 22.5066C95.0674 22.7124 95.379 23.0449 95.6167 23.504C95.8596 23.9631 95.9811 24.5435 95.9811 25.2454C95.9811 26.2744 95.7276 27.1003 95.2205 27.723C94.7188 28.3404 93.9951 28.723 93.0497 28.8707C93.3138 29.1609 93.5726 29.5726 93.8261 30.1055C94.2487 31.0026 94.7135 32.2348 95.2205 33.8021H93.1131C93.0285 33.4749 92.7433 32.5858 92.2574 31.1346C92.0039 30.3905 91.7715 29.8654 91.5602 29.5594C91.407 29.343 91.2512 29.1953 91.0927 29.1161C90.9343 29.0369 90.6676 28.9974 90.2925 28.9974H89.4844L88.6604 33.8021ZM89.7855 27.2559H90.8234C91.8058 27.2559 92.4687 27.1953 92.812 27.0739C93.1606 26.9472 93.4485 26.7177 93.6756 26.3852C93.908 26.0528 94.0242 25.686 94.0242 25.285C94.0242 24.847 93.8789 24.5277 93.5884 24.3272C93.4194 24.2005 93.0497 24.1372 92.4792 24.1372H90.3242L89.7855 27.2559Z"/>
<path d="M96.78 33.8021L98.7686 22.1979H105.828L105.495 24.1372H100.401L99.9491 26.7731H104.877L104.544 28.7124H99.6163L99.0696 31.8628H104.544L104.219 33.8021H96.78Z"/>
<path d="M106.46 30.0422L108.322 29.9235C108.349 30.5462 108.42 30.9789 108.536 31.2216C108.652 31.4644 108.845 31.657 109.114 31.7995C109.384 31.9367 109.751 32.0053 110.216 32.0053C110.818 32.0053 111.269 31.8734 111.57 31.6095C111.877 31.3456 112.03 31 112.03 30.5726C112.03 30.2718 111.943 30.0132 111.769 29.7968C111.594 29.5858 111.143 29.2876 110.414 28.9024C109.489 28.4116 108.874 28.0317 108.568 27.7625C108.267 27.4881 108.032 27.153 107.863 26.7573C107.699 26.3615 107.617 25.9103 107.617 25.4037C107.617 24.3694 107.921 23.5435 108.528 22.9261C109.136 22.3087 109.965 22 111.016 22C112.078 22 112.925 22.3061 113.559 22.9182C114.198 23.5303 114.549 24.3931 114.613 25.5066L112.735 25.6095C112.64 24.4644 112.064 23.8918 111.008 23.8918C110.485 23.8918 110.099 24.0026 109.851 24.2243C109.608 24.4406 109.487 24.7388 109.487 25.1187C109.487 25.467 109.603 25.7493 109.835 25.9657C110.062 26.1873 110.522 26.4828 111.214 26.8522C112.128 27.3325 112.735 27.7071 113.036 27.9763C113.337 28.2401 113.567 28.5673 113.725 28.9578C113.889 29.343 113.971 29.781 113.971 30.2718C113.971 31.3694 113.625 32.2665 112.933 32.9631C112.241 33.6544 111.328 34 110.192 34C109.336 34 108.605 33.8179 107.997 33.4538C107.395 33.0897 106.983 32.6042 106.761 31.9974C106.545 31.3905 106.444 30.7388 106.46 30.0422Z"/>
<path d="M115.847 30.0422L117.709 29.9235C117.736 30.5462 117.807 30.9789 117.923 31.2216C118.039 31.4644 118.232 31.657 118.502 31.7995C118.771 31.9367 119.138 32.0053 119.603 32.0053C120.205 32.0053 120.657 31.8734 120.958 31.6095C121.264 31.3456 121.417 31 121.417 30.5726C121.417 30.2718 121.33 30.0132 121.156 29.7968C120.981 29.5858 120.53 29.2876 119.801 28.9024C118.877 28.4116 118.261 28.0317 117.955 27.7625C117.654 27.4881 117.419 27.153 117.25 26.7573C117.086 26.3615 117.004 25.9103 117.004 25.4037C117.004 24.3694 117.308 23.5435 117.915 22.9261C118.523 22.3087 119.352 22 120.403 22C121.465 22 122.312 22.3061 122.946 22.9182C123.585 23.5303 123.937 24.3931 124 25.5066L122.122 25.6095C122.027 24.4644 121.451 23.8918 120.395 23.8918C119.872 23.8918 119.487 24.0026 119.238 24.2243C118.995 24.4406 118.874 24.7388 118.874 25.1187C118.874 25.467 118.99 25.7493 119.223 25.9657C119.45 26.1873 119.909 26.4828 120.601 26.8522C121.515 27.3325 122.122 27.7071 122.423 27.9763C122.724 28.2401 122.954 28.5673 123.113 28.9578C123.276 29.343 123.358 29.781 123.358 30.2718C123.358 31.3694 123.012 32.2665 122.32 32.9631C121.628 33.6544 120.715 34 119.579 34C118.723 34 117.992 33.8179 117.384 33.4538C116.782 33.0897 116.37 32.6042 116.148 31.9974C115.932 31.3905 115.832 30.7388 115.847 30.0422Z"/>
</mask>
<path d="M-53 33.8021L-51.0114 22.1979H-44.3404L-44.6731 24.1372H-49.3793L-49.8626 26.9235H-45.2515L-45.5842 28.8628H-50.1953L-51.0431 33.8021H-53Z" fill="#F7D700"/>
<path d="M-44.2704 33.8021L-42.2818 22.1979H-40.3169L-41.9807 31.8628H-37.132L-37.4647 33.8021H-44.2704Z" fill="#F7D700"/>
<path d="M-32.3797 33.8021H-34.3445L-33.5602 29.2823L-36.1905 22.1979H-34.1068L-32.9263 25.4749C-32.6464 26.2559 -32.4589 26.8232 -32.3638 27.1768C-32.1948 26.8232 -32.0046 26.4565 -31.7934 26.0765L-30.8981 24.5488L-29.5512 22.1979H-27.2774L-31.6428 29.504L-32.3797 33.8021Z" fill="#F7D700"/>
<path d="M-27.865 33.8021L-25.8764 22.1979H-23.9195L-25.9081 33.8021H-27.865Z" fill="#F7D700"/>
<path d="M-15.9505 33.8021H-17.7806L-20.3556 26.0053L-21.6866 33.8021H-23.5168L-21.5281 22.1979H-19.698L-17.123 29.9631L-15.792 22.1979H-13.9618L-15.9505 33.8021Z" fill="#F7D700"/>
<path d="M-8.13994 27.6042H-3.88539L-4.74105 32.5831C-5.26924 33.0053 -5.90042 33.3483 -6.63461 33.6121C-7.36879 33.8707 -8.09769 34 -8.8213 34C-10.0784 34 -11.0265 33.6253 -11.6656 32.876C-12.4315 31.9789 -12.8144 30.7361 -12.8144 29.1478C-12.8144 27.7652 -12.5529 26.496 -12.03 25.3404C-11.5019 24.1794 -10.8548 23.3325 -10.089 22.7995C-9.3178 22.2665 -8.45685 22 -7.50611 22C-6.4603 22 -5.59407 22.3008 -4.90743 22.9024C-4.22079 23.504 -3.7639 24.4222 -3.53679 25.657L-5.35903 25.9103C-5.68123 24.591 -6.39692 23.9314 -7.50611 23.9314C-8.10825 23.9314 -8.66285 24.1161 -9.16991 24.4855C-9.67697 24.8496 -10.0969 25.4433 -10.4296 26.2665C-10.7571 27.0897 -10.9208 28.0501 -10.9208 29.1478C-10.9208 30.1346 -10.736 30.8575 -10.3663 31.3166C-9.99652 31.7757 -9.46305 32.0053 -8.76584 32.0053C-8.37498 32.0053 -7.99469 31.9472 -7.62496 31.8311C-7.12318 31.6781 -6.69535 31.4908 -6.34146 31.2691L-6.0404 29.5435H-8.4727L-8.13994 27.6042Z" fill="#F7D700"/>
<path d="M5.79355 33.8021H3.83662L5.50041 24.1372H2.70366L3.03642 22.1979H10.5393L10.2066 24.1372H7.45734L5.79355 33.8021Z" fill="#F7D700"/>
<path d="M10.2131 33.8021L12.2017 22.1979H14.1587L12.1701 33.8021H10.2131Z" fill="#F7D700"/>
<path d="M19.8221 27.6042H24.0767L23.221 32.5831C22.6928 33.0053 22.0616 33.3483 21.3275 33.6121C20.5933 33.8707 19.8644 34 19.1408 34C17.8837 34 16.9356 33.6253 16.2965 32.876C15.5306 31.9789 15.1477 30.7361 15.1477 29.1478C15.1477 27.7652 15.4091 26.496 15.932 25.3404C16.4602 24.1794 17.1072 23.3325 17.8731 22.7995C18.6443 22.2665 19.5052 22 20.4559 22C21.5018 22 22.368 22.3008 23.0546 22.9024C23.7413 23.504 24.1982 24.4222 24.4253 25.657L22.603 25.9103C22.2808 24.591 21.5651 23.9314 20.4559 23.9314C19.8538 23.9314 19.2992 24.1161 18.7922 24.4855C18.2851 24.8496 17.8652 25.4433 17.5324 26.2665C17.205 27.0897 17.0412 28.0501 17.0412 29.1478C17.0412 30.1346 17.2261 30.8575 17.5958 31.3166C17.9655 31.7757 18.499 32.0053 19.1962 32.0053C19.5871 32.0053 19.9674 31.9472 20.3371 31.8311C20.8389 31.6781 21.2667 31.4908 21.6206 31.2691L21.9217 29.5435H19.4894L19.8221 27.6042Z" fill="#F7D700"/>
<path d="M25.3905 33.8021L27.3791 22.1979H34.4384L34.1056 24.1372H29.0112L28.5596 26.7731H33.4876L33.1549 28.7124H28.2269L27.6802 31.8628H33.1549L32.83 33.8021H25.3905Z" fill="#F7D700"/>
<path d="M36.7742 33.8021H34.8173L36.8059 22.1979H41.0446C41.8263 22.1979 42.41 22.3008 42.7956 22.5066C43.1811 22.7124 43.4928 23.0449 43.7304 23.504C43.9734 23.9631 44.0949 24.5435 44.0949 25.2454C44.0949 26.2744 43.8414 27.1003 43.3343 27.723C42.8325 28.3404 42.1089 28.723 41.1635 28.8707C41.4275 29.1609 41.6864 29.5726 41.9399 30.1055C42.3624 31.0026 42.8272 32.2348 43.3343 33.8021H41.2268C41.1423 33.4749 40.8571 32.5858 40.3712 31.1346C40.1176 30.3905 39.8852 29.8654 39.674 29.5594C39.5208 29.343 39.365 29.1953 39.2065 29.1161C39.0481 29.0369 38.7813 28.9974 38.4063 28.9974H37.5982L36.7742 33.8021ZM37.8993 27.2559H38.9371C39.9196 27.2559 40.5824 27.1953 40.9258 27.0739C41.2744 26.9472 41.5622 26.7177 41.7894 26.3852C42.0218 26.0528 42.138 25.686 42.138 25.285C42.138 24.847 41.9927 24.5277 41.7022 24.3272C41.5332 24.2005 41.1634 24.1372 40.593 24.1372H38.438L37.8993 27.2559Z" fill="#F7D700"/>
<path d="M45.1869 30.0422L47.0487 29.9235C47.0751 30.5462 47.1464 30.9789 47.2626 31.2216C47.3788 31.4644 47.5716 31.657 47.841 31.7995C48.1104 31.9367 48.4775 32.0053 48.9423 32.0053C49.5444 32.0053 49.996 31.8734 50.2971 31.6095C50.6034 31.3456 50.7566 31 50.7566 30.5726C50.7566 30.2718 50.6694 30.0132 50.4951 29.7968C50.3208 29.5858 49.8692 29.2876 49.1404 28.9024C48.216 28.4116 47.6007 28.0317 47.2943 27.7625C46.9933 27.4881 46.7582 27.153 46.5892 26.7573C46.4255 26.3615 46.3436 25.9103 46.3436 25.4037C46.3436 24.3694 46.6473 23.5435 47.2547 22.9261C47.8621 22.3087 48.6914 22 49.7425 22C50.8041 22 51.6519 22.3061 52.2857 22.9182C52.9248 23.5303 53.2761 24.3931 53.3394 25.5066L51.4617 25.6095C51.3667 24.4644 50.7909 23.8918 49.7346 23.8918C49.2117 23.8918 48.8261 24.0026 48.5778 24.2243C48.3349 24.4406 48.2134 24.7388 48.2134 25.1187C48.2134 25.467 48.3296 25.7493 48.562 25.9657C48.7891 26.1873 49.2486 26.4828 49.9406 26.8522C50.8543 27.3325 51.4617 27.7071 51.7628 27.9763C52.0639 28.2401 52.2936 28.5673 52.4521 28.9578C52.6158 29.343 52.6977 29.781 52.6977 30.2718C52.6977 31.3694 52.3517 32.2665 51.6598 32.9631C50.9679 33.6544 50.0541 34 48.9185 34C48.0629 34 47.3313 33.8179 46.7239 33.4538C46.1218 33.0897 45.7098 32.6042 45.4879 31.9974C45.2714 31.3905 45.171 30.7388 45.1869 30.0422Z" fill="#F7D700"/>
<path d="M58.5024 33.8021L60.491 22.1979H67.5502L67.2175 24.1372H62.1231L61.6715 26.7731H66.5995L66.2667 28.7124H61.3388L60.7921 31.8628H66.2667L65.9419 33.8021H58.5024Z" fill="#F7D700"/>
<path d="M69.482 33.8021H66.9467L71.1537 27.9288L68.7848 22.1979H70.8368L71.7559 24.3747C72.0886 25.1557 72.329 25.7625 72.4769 26.1953C73.005 25.409 73.4514 24.7652 73.8158 24.2639L75.3132 22.1979H77.7693L73.4197 28.3087L75.7648 33.8021H73.5544L72.8413 32.0528C72.461 31.1187 72.2128 30.4565 72.0966 30.066C71.9328 30.372 71.4971 31.0158 70.7893 31.9974L69.482 33.8021Z" fill="#F7D700"/>
<path d="M79.2337 33.8021H77.2767L79.2654 22.1979H83.1396C83.8579 22.1979 84.4099 22.3008 84.7955 22.5066C85.181 22.7124 85.49 23.0369 85.7224 23.4802C85.9601 23.9182 86.079 24.4565 86.079 25.095C86.079 25.8654 85.9364 26.5752 85.6511 27.2243C85.3712 27.8681 85.0199 28.3456 84.5974 28.657C84.1801 28.9683 83.6836 29.1794 83.1079 29.2902C82.7963 29.3483 82.1783 29.3773 81.254 29.3773H79.9942L79.2337 33.8021ZM80.327 27.4538H80.9291C81.8957 27.4538 82.5533 27.3879 82.9019 27.2559C83.2558 27.124 83.5463 26.8839 83.7734 26.5356C84.0005 26.1821 84.1141 25.7731 84.1141 25.3087C84.1141 24.8074 83.9504 24.4617 83.6229 24.2718C83.4328 24.1609 82.9944 24.1055 82.3077 24.1055H80.8974L80.327 27.4538Z" fill="#F7D700"/>
<path d="M88.6604 33.8021H86.7035L88.6921 22.1979H92.9308C93.7126 22.1979 94.2962 22.3008 94.6818 22.5066C95.0674 22.7124 95.379 23.0449 95.6167 23.504C95.8596 23.9631 95.9811 24.5435 95.9811 25.2454C95.9811 26.2744 95.7276 27.1003 95.2205 27.723C94.7188 28.3404 93.9951 28.723 93.0497 28.8707C93.3138 29.1609 93.5726 29.5726 93.8261 30.1055C94.2487 31.0026 94.7135 32.2348 95.2205 33.8021H93.1131C93.0285 33.4749 92.7433 32.5858 92.2574 31.1346C92.0039 30.3905 91.7715 29.8654 91.5602 29.5594C91.407 29.343 91.2512 29.1953 91.0927 29.1161C90.9343 29.0369 90.6676 28.9974 90.2925 28.9974H89.4844L88.6604 33.8021ZM89.7855 27.2559H90.8234C91.8058 27.2559 92.4687 27.1953 92.812 27.0739C93.1606 26.9472 93.4485 26.7177 93.6756 26.3852C93.908 26.0528 94.0242 25.686 94.0242 25.285C94.0242 24.847 93.8789 24.5277 93.5884 24.3272C93.4194 24.2005 93.0497 24.1372 92.4792 24.1372H90.3242L89.7855 27.2559Z" fill="#F7D700"/>
<path d="M96.78 33.8021L98.7686 22.1979H105.828L105.495 24.1372H100.401L99.9491 26.7731H104.877L104.544 28.7124H99.6163L99.0696 31.8628H104.544L104.219 33.8021H96.78Z" fill="#F7D700"/>
<path d="M106.46 30.0422L108.322 29.9235C108.349 30.5462 108.42 30.9789 108.536 31.2216C108.652 31.4644 108.845 31.657 109.114 31.7995C109.384 31.9367 109.751 32.0053 110.216 32.0053C110.818 32.0053 111.269 31.8734 111.57 31.6095C111.877 31.3456 112.03 31 112.03 30.5726C112.03 30.2718 111.943 30.0132 111.769 29.7968C111.594 29.5858 111.143 29.2876 110.414 28.9024C109.489 28.4116 108.874 28.0317 108.568 27.7625C108.267 27.4881 108.032 27.153 107.863 26.7573C107.699 26.3615 107.617 25.9103 107.617 25.4037C107.617 24.3694 107.921 23.5435 108.528 22.9261C109.136 22.3087 109.965 22 111.016 22C112.078 22 112.925 22.3061 113.559 22.9182C114.198 23.5303 114.549 24.3931 114.613 25.5066L112.735 25.6095C112.64 24.4644 112.064 23.8918 111.008 23.8918C110.485 23.8918 110.099 24.0026 109.851 24.2243C109.608 24.4406 109.487 24.7388 109.487 25.1187C109.487 25.467 109.603 25.7493 109.835 25.9657C110.062 26.1873 110.522 26.4828 111.214 26.8522C112.128 27.3325 112.735 27.7071 113.036 27.9763C113.337 28.2401 113.567 28.5673 113.725 28.9578C113.889 29.343 113.971 29.781 113.971 30.2718C113.971 31.3694 113.625 32.2665 112.933 32.9631C112.241 33.6544 111.328 34 110.192 34C109.336 34 108.605 33.8179 107.997 33.4538C107.395 33.0897 106.983 32.6042 106.761 31.9974C106.545 31.3905 106.444 30.7388 106.46 30.0422Z" fill="#F7D700"/>
<path d="M115.847 30.0422L117.709 29.9235C117.736 30.5462 117.807 30.9789 117.923 31.2216C118.039 31.4644 118.232 31.657 118.502 31.7995C118.771 31.9367 119.138 32.0053 119.603 32.0053C120.205 32.0053 120.657 31.8734 120.958 31.6095C121.264 31.3456 121.417 31 121.417 30.5726C121.417 30.2718 121.33 30.0132 121.156 29.7968C120.981 29.5858 120.53 29.2876 119.801 28.9024C118.877 28.4116 118.261 28.0317 117.955 27.7625C117.654 27.4881 117.419 27.153 117.25 26.7573C117.086 26.3615 117.004 25.9103 117.004 25.4037C117.004 24.3694 117.308 23.5435 117.915 22.9261C118.523 22.3087 119.352 22 120.403 22C121.465 22 122.312 22.3061 122.946 22.9182C123.585 23.5303 123.937 24.3931 124 25.5066L122.122 25.6095C122.027 24.4644 121.451 23.8918 120.395 23.8918C119.872 23.8918 119.487 24.0026 119.238 24.2243C118.995 24.4406 118.874 24.7388 118.874 25.1187C118.874 25.467 118.99 25.7493 119.223 25.9657C119.45 26.1873 119.909 26.4828 120.601 26.8522C121.515 27.3325 122.122 27.7071 122.423 27.9763C122.724 28.2401 122.954 28.5673 123.113 28.9578C123.276 29.343 123.358 29.781 123.358 30.2718C123.358 31.3694 123.012 32.2665 122.32 32.9631C121.628 33.6544 120.715 34 119.579 34C118.723 34 117.992 33.8179 117.384 33.4538C116.782 33.0897 116.37 32.6042 116.148 31.9974C115.932 31.3905 115.832 30.7388 115.847 30.0422Z" fill="#F7D700"/>
<path d="M-53 33.8021L-51.0114 22.1979H-44.3404L-44.6731 24.1372H-49.3793L-49.8626 26.9235H-45.2515L-45.5842 28.8628H-50.1953L-51.0431 33.8021H-53Z" stroke="#F7D700" stroke-width="0.4" mask="url(#path-3-outside-2_7069_38555)"/>
<path d="M-44.2704 33.8021L-42.2818 22.1979H-40.3169L-41.9807 31.8628H-37.132L-37.4647 33.8021H-44.2704Z" stroke="#F7D700" stroke-width="0.4" mask="url(#path-3-outside-2_7069_38555)"/>
<path d="M-32.3797 33.8021H-34.3445L-33.5602 29.2823L-36.1905 22.1979H-34.1068L-32.9263 25.4749C-32.6464 26.2559 -32.4589 26.8232 -32.3638 27.1768C-32.1948 26.8232 -32.0046 26.4565 -31.7934 26.0765L-30.8981 24.5488L-29.5512 22.1979H-27.2774L-31.6428 29.504L-32.3797 33.8021Z" stroke="#F7D700" stroke-width="0.4" mask="url(#path-3-outside-2_7069_38555)"/>
<path d="M-27.865 33.8021L-25.8764 22.1979H-23.9195L-25.9081 33.8021H-27.865Z" stroke="#F7D700" stroke-width="0.4" mask="url(#path-3-outside-2_7069_38555)"/>
<path d="M-15.9505 33.8021H-17.7806L-20.3556 26.0053L-21.6866 33.8021H-23.5168L-21.5281 22.1979H-19.698L-17.123 29.9631L-15.792 22.1979H-13.9618L-15.9505 33.8021Z" stroke="#F7D700" stroke-width="0.4" mask="url(#path-3-outside-2_7069_38555)"/>
<path d="M-8.13994 27.6042H-3.88539L-4.74105 32.5831C-5.26924 33.0053 -5.90042 33.3483 -6.63461 33.6121C-7.36879 33.8707 -8.09769 34 -8.8213 34C-10.0784 34 -11.0265 33.6253 -11.6656 32.876C-12.4315 31.9789 -12.8144 30.7361 -12.8144 29.1478C-12.8144 27.7652 -12.5529 26.496 -12.03 25.3404C-11.5019 24.1794 -10.8548 23.3325 -10.089 22.7995C-9.3178 22.2665 -8.45685 22 -7.50611 22C-6.4603 22 -5.59407 22.3008 -4.90743 22.9024C-4.22079 23.504 -3.7639 24.4222 -3.53679 25.657L-5.35903 25.9103C-5.68123 24.591 -6.39692 23.9314 -7.50611 23.9314C-8.10825 23.9314 -8.66285 24.1161 -9.16991 24.4855C-9.67697 24.8496 -10.0969 25.4433 -10.4296 26.2665C-10.7571 27.0897 -10.9208 28.0501 -10.9208 29.1478C-10.9208 30.1346 -10.736 30.8575 -10.3663 31.3166C-9.99652 31.7757 -9.46305 32.0053 -8.76584 32.0053C-8.37498 32.0053 -7.99469 31.9472 -7.62496 31.8311C-7.12318 31.6781 -6.69535 31.4908 -6.34146 31.2691L-6.0404 29.5435H-8.4727L-8.13994 27.6042Z" stroke="#F7D700" stroke-width="0.4" mask="url(#path-3-outside-2_7069_38555)"/>
<path d="M5.79355 33.8021H3.83662L5.50041 24.1372H2.70366L3.03642 22.1979H10.5393L10.2066 24.1372H7.45734L5.79355 33.8021Z" stroke="#F7D700" stroke-width="0.4" mask="url(#path-3-outside-2_7069_38555)"/>
<path d="M10.2131 33.8021L12.2017 22.1979H14.1587L12.1701 33.8021H10.2131Z" stroke="#F7D700" stroke-width="0.4" mask="url(#path-3-outside-2_7069_38555)"/>
<path d="M19.8221 27.6042H24.0767L23.221 32.5831C22.6928 33.0053 22.0616 33.3483 21.3275 33.6121C20.5933 33.8707 19.8644 34 19.1408 34C17.8837 34 16.9356 33.6253 16.2965 32.876C15.5306 31.9789 15.1477 30.7361 15.1477 29.1478C15.1477 27.7652 15.4091 26.496 15.932 25.3404C16.4602 24.1794 17.1072 23.3325 17.8731 22.7995C18.6443 22.2665 19.5052 22 20.4559 22C21.5018 22 22.368 22.3008 23.0546 22.9024C23.7413 23.504 24.1982 24.4222 24.4253 25.657L22.603 25.9103C22.2808 24.591 21.5651 23.9314 20.4559 23.9314C19.8538 23.9314 19.2992 24.1161 18.7922 24.4855C18.2851 24.8496 17.8652 25.4433 17.5324 26.2665C17.205 27.0897 17.0412 28.0501 17.0412 29.1478C17.0412 30.1346 17.2261 30.8575 17.5958 31.3166C17.9655 31.7757 18.499 32.0053 19.1962 32.0053C19.5871 32.0053 19.9674 31.9472 20.3371 31.8311C20.8389 31.6781 21.2667 31.4908 21.6206 31.2691L21.9217 29.5435H19.4894L19.8221 27.6042Z" stroke="#F7D700" stroke-width="0.4" mask="url(#path-3-outside-2_7069_38555)"/>
<path d="M25.3905 33.8021L27.3791 22.1979H34.4384L34.1056 24.1372H29.0112L28.5596 26.7731H33.4876L33.1549 28.7124H28.2269L27.6802 31.8628H33.1549L32.83 33.8021H25.3905Z" stroke="#F7D700" stroke-width="0.4" mask="url(#path-3-outside-2_7069_38555)"/>
<path d="M36.7742 33.8021H34.8173L36.8059 22.1979H41.0446C41.8263 22.1979 42.41 22.3008 42.7956 22.5066C43.1811 22.7124 43.4928 23.0449 43.7304 23.504C43.9734 23.9631 44.0949 24.5435 44.0949 25.2454C44.0949 26.2744 43.8414 27.1003 43.3343 27.723C42.8325 28.3404 42.1089 28.723 41.1635 28.8707C41.4275 29.1609 41.6864 29.5726 41.9399 30.1055C42.3624 31.0026 42.8272 32.2348 43.3343 33.8021H41.2268C41.1423 33.4749 40.8571 32.5858 40.3712 31.1346C40.1176 30.3905 39.8852 29.8654 39.674 29.5594C39.5208 29.343 39.365 29.1953 39.2065 29.1161C39.0481 29.0369 38.7813 28.9974 38.4063 28.9974H37.5982L36.7742 33.8021ZM37.8993 27.2559H38.9371C39.9196 27.2559 40.5824 27.1953 40.9258 27.0739C41.2744 26.9472 41.5622 26.7177 41.7894 26.3852C42.0218 26.0528 42.138 25.686 42.138 25.285C42.138 24.847 41.9927 24.5277 41.7022 24.3272C41.5332 24.2005 41.1634 24.1372 40.593 24.1372H38.438L37.8993 27.2559Z" stroke="#F7D700" stroke-width="0.4" mask="url(#path-3-outside-2_7069_38555)"/>
<path d="M45.1869 30.0422L47.0487 29.9235C47.0751 30.5462 47.1464 30.9789 47.2626 31.2216C47.3788 31.4644 47.5716 31.657 47.841 31.7995C48.1104 31.9367 48.4775 32.0053 48.9423 32.0053C49.5444 32.0053 49.996 31.8734 50.2971 31.6095C50.6034 31.3456 50.7566 31 50.7566 30.5726C50.7566 30.2718 50.6694 30.0132 50.4951 29.7968C50.3208 29.5858 49.8692 29.2876 49.1404 28.9024C48.216 28.4116 47.6007 28.0317 47.2943 27.7625C46.9933 27.4881 46.7582 27.153 46.5892 26.7573C46.4255 26.3615 46.3436 25.9103 46.3436 25.4037C46.3436 24.3694 46.6473 23.5435 47.2547 22.9261C47.8621 22.3087 48.6914 22 49.7425 22C50.8041 22 51.6519 22.3061 52.2857 22.9182C52.9248 23.5303 53.2761 24.3931 53.3394 25.5066L51.4617 25.6095C51.3667 24.4644 50.7909 23.8918 49.7346 23.8918C49.2117 23.8918 48.8261 24.0026 48.5778 24.2243C48.3349 24.4406 48.2134 24.7388 48.2134 25.1187C48.2134 25.467 48.3296 25.7493 48.562 25.9657C48.7891 26.1873 49.2486 26.4828 49.9406 26.8522C50.8543 27.3325 51.4617 27.7071 51.7628 27.9763C52.0639 28.2401 52.2936 28.5673 52.4521 28.9578C52.6158 29.343 52.6977 29.781 52.6977 30.2718C52.6977 31.3694 52.3517 32.2665 51.6598 32.9631C50.9679 33.6544 50.0541 34 48.9185 34C48.0629 34 47.3313 33.8179 46.7239 33.4538C46.1218 33.0897 45.7098 32.6042 45.4879 31.9974C45.2714 31.3905 45.171 30.7388 45.1869 30.0422Z" stroke="#F7D700" stroke-width="0.4" mask="url(#path-3-outside-2_7069_38555)"/>
<path d="M58.5024 33.8021L60.491 22.1979H67.5502L67.2175 24.1372H62.1231L61.6715 26.7731H66.5995L66.2667 28.7124H61.3388L60.7921 31.8628H66.2667L65.9419 33.8021H58.5024Z" stroke="#F7D700" stroke-width="0.4" mask="url(#path-3-outside-2_7069_38555)"/>
<path d="M69.482 33.8021H66.9467L71.1537 27.9288L68.7848 22.1979H70.8368L71.7559 24.3747C72.0886 25.1557 72.329 25.7625 72.4769 26.1953C73.005 25.409 73.4514 24.7652 73.8158 24.2639L75.3132 22.1979H77.7693L73.4197 28.3087L75.7648 33.8021H73.5544L72.8413 32.0528C72.461 31.1187 72.2128 30.4565 72.0966 30.066C71.9328 30.372 71.4971 31.0158 70.7893 31.9974L69.482 33.8021Z" stroke="#F7D700" stroke-width="0.4" mask="url(#path-3-outside-2_7069_38555)"/>
<path d="M79.2337 33.8021H77.2767L79.2654 22.1979H83.1396C83.8579 22.1979 84.4099 22.3008 84.7955 22.5066C85.181 22.7124 85.49 23.0369 85.7224 23.4802C85.9601 23.9182 86.079 24.4565 86.079 25.095C86.079 25.8654 85.9364 26.5752 85.6511 27.2243C85.3712 27.8681 85.0199 28.3456 84.5974 28.657C84.1801 28.9683 83.6836 29.1794 83.1079 29.2902C82.7963 29.3483 82.1783 29.3773 81.254 29.3773H79.9942L79.2337 33.8021ZM80.327 27.4538H80.9291C81.8957 27.4538 82.5533 27.3879 82.9019 27.2559C83.2558 27.124 83.5463 26.8839 83.7734 26.5356C84.0005 26.1821 84.1141 25.7731 84.1141 25.3087C84.1141 24.8074 83.9504 24.4617 83.6229 24.2718C83.4328 24.1609 82.9944 24.1055 82.3077 24.1055H80.8974L80.327 27.4538Z" stroke="#F7D700" stroke-width="0.4" mask="url(#path-3-outside-2_7069_38555)"/>
<path d="M88.6604 33.8021H86.7035L88.6921 22.1979H92.9308C93.7126 22.1979 94.2962 22.3008 94.6818 22.5066C95.0674 22.7124 95.379 23.0449 95.6167 23.504C95.8596 23.9631 95.9811 24.5435 95.9811 25.2454C95.9811 26.2744 95.7276 27.1003 95.2205 27.723C94.7188 28.3404 93.9951 28.723 93.0497 28.8707C93.3138 29.1609 93.5726 29.5726 93.8261 30.1055C94.2487 31.0026 94.7135 32.2348 95.2205 33.8021H93.1131C93.0285 33.4749 92.7433 32.5858 92.2574 31.1346C92.0039 30.3905 91.7715 29.8654 91.5602 29.5594C91.407 29.343 91.2512 29.1953 91.0927 29.1161C90.9343 29.0369 90.6676 28.9974 90.2925 28.9974H89.4844L88.6604 33.8021ZM89.7855 27.2559H90.8234C91.8058 27.2559 92.4687 27.1953 92.812 27.0739C93.1606 26.9472 93.4485 26.7177 93.6756 26.3852C93.908 26.0528 94.0242 25.686 94.0242 25.285C94.0242 24.847 93.8789 24.5277 93.5884 24.3272C93.4194 24.2005 93.0497 24.1372 92.4792 24.1372H90.3242L89.7855 27.2559Z" stroke="#F7D700" stroke-width="0.4" mask="url(#path-3-outside-2_7069_38555)"/>
<path d="M96.78 33.8021L98.7686 22.1979H105.828L105.495 24.1372H100.401L99.9491 26.7731H104.877L104.544 28.7124H99.6163L99.0696 31.8628H104.544L104.219 33.8021H96.78Z" stroke="#F7D700" stroke-width="0.4" mask="url(#path-3-outside-2_7069_38555)"/>
<path d="M106.46 30.0422L108.322 29.9235C108.349 30.5462 108.42 30.9789 108.536 31.2216C108.652 31.4644 108.845 31.657 109.114 31.7995C109.384 31.9367 109.751 32.0053 110.216 32.0053C110.818 32.0053 111.269 31.8734 111.57 31.6095C111.877 31.3456 112.03 31 112.03 30.5726C112.03 30.2718 111.943 30.0132 111.769 29.7968C111.594 29.5858 111.143 29.2876 110.414 28.9024C109.489 28.4116 108.874 28.0317 108.568 27.7625C108.267 27.4881 108.032 27.153 107.863 26.7573C107.699 26.3615 107.617 25.9103 107.617 25.4037C107.617 24.3694 107.921 23.5435 108.528 22.9261C109.136 22.3087 109.965 22 111.016 22C112.078 22 112.925 22.3061 113.559 22.9182C114.198 23.5303 114.549 24.3931 114.613 25.5066L112.735 25.6095C112.64 24.4644 112.064 23.8918 111.008 23.8918C110.485 23.8918 110.099 24.0026 109.851 24.2243C109.608 24.4406 109.487 24.7388 109.487 25.1187C109.487 25.467 109.603 25.7493 109.835 25.9657C110.062 26.1873 110.522 26.4828 111.214 26.8522C112.128 27.3325 112.735 27.7071 113.036 27.9763C113.337 28.2401 113.567 28.5673 113.725 28.9578C113.889 29.343 113.971 29.781 113.971 30.2718C113.971 31.3694 113.625 32.2665 112.933 32.9631C112.241 33.6544 111.328 34 110.192 34C109.336 34 108.605 33.8179 107.997 33.4538C107.395 33.0897 106.983 32.6042 106.761 31.9974C106.545 31.3905 106.444 30.7388 106.46 30.0422Z" stroke="#F7D700" stroke-width="0.4" mask="url(#path-3-outside-2_7069_38555)"/>
<path d="M115.847 30.0422L117.709 29.9235C117.736 30.5462 117.807 30.9789 117.923 31.2216C118.039 31.4644 118.232 31.657 118.502 31.7995C118.771 31.9367 119.138 32.0053 119.603 32.0053C120.205 32.0053 120.657 31.8734 120.958 31.6095C121.264 31.3456 121.417 31 121.417 30.5726C121.417 30.2718 121.33 30.0132 121.156 29.7968C120.981 29.5858 120.53 29.2876 119.801 28.9024C118.877 28.4116 118.261 28.0317 117.955 27.7625C117.654 27.4881 117.419 27.153 117.25 26.7573C117.086 26.3615 117.004 25.9103 117.004 25.4037C117.004 24.3694 117.308 23.5435 117.915 22.9261C118.523 22.3087 119.352 22 120.403 22C121.465 22 122.312 22.3061 122.946 22.9182C123.585 23.5303 123.937 24.3931 124 25.5066L122.122 25.6095C122.027 24.4644 121.451 23.8918 120.395 23.8918C119.872 23.8918 119.487 24.0026 119.238 24.2243C118.995 24.4406 118.874 24.7388 118.874 25.1187C118.874 25.467 118.99 25.7493 119.223 25.9657C119.45 26.1873 119.909 26.4828 120.601 26.8522C121.515 27.3325 122.122 27.7071 122.423 27.9763C122.724 28.2401 122.954 28.5673 123.113 28.9578C123.276 29.343 123.358 29.781 123.358 30.2718C123.358 31.3694 123.012 32.2665 122.32 32.9631C121.628 33.6544 120.715 34 119.579 34C118.723 34 117.992 33.8179 117.384 33.4538C116.782 33.0897 116.37 32.6042 116.148 31.9974C115.932 31.3905 115.832 30.7388 115.847 30.0422Z" stroke="#F7D700" stroke-width="0.4" mask="url(#path-3-outside-2_7069_38555)"/>
</g>
<defs>
<clipPath id="clip0_7069_38555">
<rect width="107" height="28" fill="white" transform="translate(58 8)"/>
</clipPath>
</defs>
</svg>
